# Blender v2.65 (sub 0) OBJ File: 'Missile Launcher.blend'
# www.blender.org
mtllib MissileLauncherBarrel.mtl
o Cube.001
v 0.001572 -0.540000 3.355280
v 0.001572 0.540000 3.355280
v 0.881572 0.000002 3.355280
v 0.001572 -0.540000 1.284494
v 0.881572 0.000002 1.284494
v 0.001572 0.540000 1.284494
v -0.878428 0.000002 3.355280
v -0.878428 0.000002 1.284494
v 0.687073 -0.540000 3.355280
v -0.693927 0.540000 3.355280
v 0.881572 -0.372388 3.355280
v -0.693927 -0.540000 1.284494
v 0.881572 -0.372388 1.284494
v 0.687073 0.540000 1.284494
v -0.878428 0.372112 3.355280
v -0.878428 -0.372388 1.284494
v -0.693927 -0.540000 3.355280
v 0.687073 0.540000 3.355280
v 0.881572 0.372112 3.355280
v 0.687073 -0.540000 1.284494
v 0.881572 0.372112 1.284494
v -0.693927 0.540000 1.284494
v -0.878428 -0.372388 3.355280
v -0.878428 0.372112 1.284494
vt 0.516398 0.318865
vt 0.355345 0.318870
vt 0.355344 0.249219
vt 0.516398 0.249216
vt 0.354957 0.679291
vt 0.516009 0.679282
vt 0.516010 0.748932
vt 0.354957 0.748941
vt 0.515777 0.999766
vt 0.354725 0.999776
vt 0.354724 0.869594
vt 0.515776 0.869584
vt 0.355187 0.369848
vt 0.516240 0.369841
vt 0.516241 0.498150
vt 0.355188 0.498157
vt 0.355343 0.179515
vt 0.516398 0.179514
vt 0.516010 0.818634
vt 0.354958 0.818644
vt 0.355502 0.000224
vt 0.516558 0.000224
vt 0.516558 0.128537
vt 0.355502 0.128537
vt 0.516242 0.628331
vt 0.355189 0.628339
vn 1.000000 -0.000000 0.000000
vn -1.000000 0.000000 0.000000
vn 0.000000 -1.000000 0.000000
vn -0.000000 1.000000 0.000000
vn 0.653424 0.756992 0.000000
vn 0.652809 -0.757523 0.000000
vn -0.672419 -0.740171 0.000000
vn -0.673024 0.739621 0.000000
usemtl Material.002
s off
f 21/1/1 19/2/1 3/3/1
f 21/1/1 3/3/1 5/4/1
f 15/5/2 24/6/2 8/7/2
f 15/5/2 8/7/2 7/8/2
f 4/9/3 1/10/3 17/11/3
f 4/9/3 17/11/3 12/12/3
f 18/13/4 14/14/4 6/15/4
f 18/13/4 6/15/4 2/16/4
f 5/4/1 3/3/1 11/17/1
f 5/4/1 11/17/1 13/18/1
f 7/8/2 8/7/2 16/19/2
f 7/8/2 16/19/2 23/20/2
f 1/21/3 4/22/3 20/23/3
f 1/21/3 20/23/3 9/24/3
f 2/16/4 6/15/4 22/25/4
f 2/16/4 22/25/4 10/26/4
f 18/13/5 19/2/5 21/1/5
f 18/13/5 21/1/5 14/14/5
f 11/17/6 9/24/6 20/23/6
f 11/17/6 20/23/6 13/18/6
f 16/19/7 12/12/7 17/11/7
f 16/19/7 17/11/7 23/20/7
f 22/25/8 24/6/8 15/5/8
f 22/25/8 15/5/8 10/26/8
