# Blender v2.65 (sub 0) OBJ File: 'bullet.blend'
# www.blender.org
mtllib bullet.mtl
o Cube
v -0.251147 0.867178 -0.015409
v -0.903519 0.431277 -0.015409
v -1.056587 -0.338247 -0.015409
v -0.620686 -0.990619 -0.015409
v -0.192570 0.867178 -0.156825
v -0.653867 0.431277 -0.618122
v -0.762102 -0.338247 -0.726357
v -0.453874 -0.990619 -0.418129
v -0.051154 0.867178 -0.215402
v -0.051154 0.431277 -0.867773
v -0.051154 -0.338247 -1.020841
v -0.051154 -0.990619 -0.584941
v 0.090263 0.867178 -0.156825
v 0.551559 0.431277 -0.618121
v 0.659795 -0.338247 -0.726357
v 0.351566 -0.990619 -0.418128
v 0.148839 0.867178 -0.015408
v 0.801211 0.431277 -0.015408
v 0.954279 -0.338247 -0.015408
v 0.518378 -0.990619 -0.015408
v 0.090263 0.867178 0.126008
v 0.551559 0.431277 0.587304
v 0.659794 -0.338247 0.695540
v 0.351566 -0.990619 0.387311
v -0.051154 -1.163385 -0.015409
v -0.051154 0.867178 0.184585
v -0.051154 0.431277 0.836956
v -0.051154 -0.338247 0.990024
v -0.051154 -0.990619 0.554123
v -0.192570 0.867178 0.126008
v -0.653867 0.431277 0.587304
v -0.762102 -0.338247 0.695539
v -0.453874 -0.990619 0.387311
v -0.051154 0.886876 -0.015408
vt 0.172922 0.320165
vt 0.242772 0.479217
vt 0.181681 0.559867
vt 0.063909 0.429266
vt 0.000131 0.222637
vt 0.110182 0.130343
vt 0.207049 0.999869
vt 0.085839 0.999869
vt 0.132981 0.822121
vt 0.156745 0.824090
vt 0.118414 0.759767
vt 0.117104 0.795478
vt 0.000131 0.871072
vt 0.000131 0.688926
vt 0.292758 0.688926
vt 0.292758 0.871072
vt 0.174475 0.800231
vt 0.175785 0.764520
vt 0.146444 0.779999
vt 0.944024 0.172736
vt 0.905277 0.382575
vt 0.784896 0.291403
vt 0.830648 0.111432
vt 0.370774 0.207929
vt 0.351464 0.014965
vt 0.474612 0.000131
vt 0.473688 0.192904
vt 0.293020 0.640013
vt 0.346179 0.560129
vt 0.383768 0.696499
vt 0.577175 0.202527
vt 0.596932 0.013360
vt 0.716011 0.052434
vt 0.680226 0.235469
vt 0.395155 0.396714
vt 0.476961 0.387042
vt 0.270150 0.249207
vt 0.229652 0.058463
vt 0.421357 0.560129
vt 0.474516 0.640013
vt 0.207050 0.560129
vt 0.159908 0.737877
vt 0.559446 0.397688
vt 0.474516 0.752986
vt 0.085839 0.560129
vt 0.136144 0.735908
vt 0.421357 0.832870
vt 0.640788 0.428741
vt 0.719312 0.481272
vt 0.293020 0.752986
vt 0.346179 0.832869
vt 0.316180 0.427000
vt 0.792315 0.559867
vn -0.695639 -0.179296 -0.695639
vn -0.455702 -0.764611 -0.455702
vn -0.644459 -0.764611 0.000000
vn -0.983764 -0.179296 0.000000
vn -0.856502 0.516098 0.000000
vn -0.605640 0.516098 -0.605640
vn 0.605640 0.516098 -0.605640
vn 0.000000 0.516098 -0.856502
vn 0.000000 0.921506 -0.388287
vn 0.274575 0.921506 -0.274575
vn -0.388287 0.921506 0.000000
vn -0.274575 0.921506 -0.274575
vn 0.605640 0.516098 0.605640
vn 0.856502 0.516098 0.000000
vn 0.388287 0.921506 0.000000
vn 0.274575 0.921506 0.274575
vn 0.000000 0.999969 0.000000
vn -0.695639 -0.179296 0.695639
vn -0.605640 0.516098 0.605640
vn 0.695639 -0.179296 -0.695639
vn 0.983764 -0.179296 0.000000
vn 0.000000 -1.000000 0.000000
vn 0.695639 -0.179296 0.695639
vn 0.000000 0.516098 0.856502
vn 0.000000 -0.179296 0.983764
vn 0.455702 -0.764611 -0.455702
vn 0.644459 -0.764611 0.000000
vn 0.000000 -0.179296 -0.983764
vn 0.000000 -0.764611 -0.644459
vn 0.000000 0.921506 0.388287
vn 0.455702 -0.764611 0.455702
vn -0.274575 0.921506 0.274575
vn 0.000000 -0.764611 0.644459
vn -0.455702 -0.764611 0.455702
usemtl Material.001
s 1
f 7/1/1 8/2/2 4/3/3
f 7/1/1 4/3/3 3/4/4
f 7/1/1 3/4/4 2/5/5
f 7/1/1 2/5/5 6/6/6
f 14/7/7 10/8/8 9/9/9
f 14/7/7 9/9/9 13/10/10
f 1/11/11 5/12/12 6/13/6
f 1/11/11 6/13/6 2/14/5
f 22/15/13 18/16/14 17/17/15
f 22/15/13 17/17/15 21/18/16
f 34/19/17 9/9/9 5/12/12
f 2/20/5 3/21/4 32/22/18
f 2/20/5 32/22/18 31/23/19
f 15/24/20 14/25/7 18/26/14
f 15/24/20 18/26/14 19/27/21
f 4/28/3 8/29/2 25/30/22
f 23/31/23 22/32/13 27/33/24
f 23/31/23 27/33/24 28/34/25
f 16/35/26 15/24/20 19/27/21
f 16/35/26 19/27/21 20/36/27
f 11/37/28 10/38/8 14/25/7
f 11/37/28 14/25/7 15/24/20
f 34/19/17 13/10/10 9/9/9
f 12/39/29 16/40/26 25/30/22
f 27/41/24 22/15/13 21/18/16
f 27/41/24 21/18/16 26/42/30
f 28/34/25 27/33/24 31/23/19
f 28/34/25 31/23/19 32/22/18
f 20/36/27 19/27/21 23/31/23
f 20/36/27 23/31/23 24/43/31
f 34/19/17 17/17/15 13/10/10
f 16/40/26 20/44/27 25/30/22
f 31/45/19 27/41/24 26/42/30
f 31/45/19 26/42/30 30/46/32
f 19/27/21 18/26/14 22/32/13
f 19/27/21 22/32/13 23/31/23
f 34/19/17 21/18/16 17/17/15
f 20/44/27 24/47/31 25/30/22
f 29/48/33 28/34/25 32/22/18
f 29/48/33 32/22/18 33/49/34
f 34/19/17 26/42/30 21/18/16
f 24/43/31 23/31/23 28/34/25
f 24/43/31 28/34/25 29/48/33
f 10/8/8 6/13/6 5/12/12
f 10/8/8 5/12/12 9/9/9
f 25/30/22 33/50/34 4/28/3
f 34/19/17 1/11/11 30/46/32
f 34/19/17 30/46/32 26/42/30
f 24/47/31 29/51/33 25/30/22
f 29/51/33 33/50/34 25/30/22
f 30/46/32 1/11/11 2/14/5
f 30/46/32 2/14/5 31/45/19
f 12/52/29 11/37/28 15/24/20
f 12/52/29 15/24/20 16/35/26
f 18/16/14 14/7/7 13/10/10
f 18/16/14 13/10/10 17/17/15
f 8/29/2 12/39/29 25/30/22
f 7/1/1 6/6/6 10/38/8
f 7/1/1 10/38/8 11/37/28
f 8/2/2 7/1/1 11/37/28
f 8/2/2 11/37/28 12/52/29
f 3/21/4 4/53/3 33/49/34
f 3/21/4 33/49/34 32/22/18
f 5/12/12 1/11/11 34/19/17
