# Blender v2.65 (sub 0) OBJ File: 'flameGun.blend'
# www.blender.org
mtllib FlameGun.mtl
o Cube
v 0.000000 -1.000000 1.571436
v 0.000000 -0.826995 -3.082554
v 0.309017 -0.951056 1.571436
v 0.255556 -0.786519 -3.082554
v 0.587785 -0.809017 1.571436
v 0.486095 -0.669053 -3.082554
v 0.809017 -0.587785 1.571436
v 0.669053 -0.486095 -3.082554
v 0.951057 -0.309016 1.571436
v 0.786519 -0.255555 -3.082554
v 1.000000 0.000001 1.571436
v 0.826995 0.000000 -3.082554
v 0.951056 0.309018 1.571436
v 0.786519 0.255556 -3.082554
v 0.809017 0.587786 1.571436
v 0.587785 0.809017 1.571436
v 0.486095 0.669053 -3.082554
v 0.309017 0.951057 1.571436
v 0.255555 0.786519 -3.082555
v -0.000000 1.000000 1.571436
v -0.000000 0.826995 -3.082555
v -0.309017 0.951057 1.571436
v -0.255556 0.786519 -3.082555
v -0.587786 0.809017 1.571436
v -0.486096 0.669053 -3.082554
v -0.809017 0.587785 1.571436
v -0.669053 0.486095 -3.082554
v -0.951057 0.309017 1.571436
v -0.786519 0.255555 -3.082554
v -1.000000 -0.000001 1.571436
v -0.826995 -0.000001 -3.082554
v -0.951056 -0.309018 1.571436
v -0.786519 -0.255556 -3.082554
v -0.809016 -0.587786 1.571436
v -0.669052 -0.486096 -3.082554
v -0.587784 -0.809017 1.571436
v -0.486095 -0.669054 -3.082554
v -0.309016 -0.951057 1.571436
v -0.255554 -0.786519 -3.082554
v -0.000000 -0.999999 2.571436
v 0.309017 -0.951056 2.571436
v 0.587785 -0.809016 2.571436
v 0.809017 -0.587785 2.571436
v 0.951057 -0.309016 2.571436
v 1.000000 0.000001 2.571436
v 0.951056 0.309018 2.571436
v 0.809017 0.587786 2.571436
v 0.587785 0.809018 2.571436
v 0.309017 0.951057 2.571436
v -0.000000 1.000001 2.571436
v -0.309017 0.951057 2.571436
v -0.587786 0.809017 2.571436
v -0.809017 0.587785 2.571436
v -0.951057 0.309017 2.571436
v -1.000000 -0.000000 2.571436
v -0.951056 -0.309017 2.571436
v -0.809016 -0.587786 2.571436
v -0.587784 -0.809017 2.571436
v -0.309016 -0.951056 2.571436
v -0.000000 -0.999999 3.571436
v 0.309017 -0.951056 3.571436
v 0.587785 -0.809016 3.571436
v 0.809017 -0.587784 3.571436
v 0.951057 -0.309016 3.571436
v 1.000000 0.000001 3.571436
v 0.951056 0.309018 3.571436
v 0.809017 0.587786 3.571436
v 0.587785 0.809018 3.571436
v 0.309017 0.951057 3.571436
v -0.000000 1.000001 3.571436
v -0.309017 0.951057 3.571436
v -0.587786 0.809017 3.571436
v -0.809017 0.587785 3.571436
v -0.951057 0.309017 3.571436
v -1.000000 -0.000000 3.571436
v -0.951056 -0.309017 3.571436
v -0.809016 -0.587786 3.571436
v -0.587784 -0.809017 3.571436
v -0.309016 -0.951056 3.571436
v 0.000000 -1.100000 0.021436
v 0.339919 -1.046162 0.021436
v 0.646564 -0.889919 0.021436
v 0.889919 -0.646564 0.021436
v 1.046162 -0.339918 0.021436
v 1.100000 0.000000 0.021436
v 1.046162 0.339919 0.021436
v 0.889919 0.646564 0.021436
v 0.646564 0.889919 0.021436
v 0.339918 1.046163 0.021436
v -0.000000 1.100000 0.021436
v -0.339919 1.046162 0.021436
v -0.646564 0.889919 0.021436
v -0.889919 0.646564 0.021436
v -1.046162 0.339918 0.021436
v -1.100000 -0.000001 0.021436
v -1.046162 -0.339920 0.021436
v -0.889918 -0.646565 0.021436
v -0.646563 -0.889919 0.021436
v -0.339917 -1.046162 0.021436
v 0.000000 -1.100000 -2.803564
v 0.339919 -1.046162 0.846436
v 0.646564 -0.889918 0.846436
v 0.889919 -0.646563 0.846436
v 1.046162 -0.339918 0.846436
v 1.100000 0.000000 0.846436
v 1.046162 0.339919 0.846436
v 0.889919 0.646564 0.846436
v 0.646564 0.889919 0.846436
v 0.339918 1.046163 0.846436
v -0.000000 1.100001 0.846436
v -0.339919 1.046162 0.846436
v -0.646564 0.889919 0.846436
v -0.889919 0.646564 0.846436
v -1.046162 0.339918 0.846436
v -1.100000 -0.000001 0.846436
v -1.046162 -0.339920 0.846436
v -0.889918 -0.646565 0.846436
v -0.646563 -0.889919 0.846436
v -0.339917 -1.046162 0.846436
v 0.000000 -1.100000 0.846436
v 0.339919 -1.046162 -2.803564
v 0.646564 -0.889919 -2.803564
v 0.889919 -0.646564 -2.803564
v 1.046162 -0.339918 -2.803564
v 1.100000 0.000000 -2.803564
v 1.046162 0.339919 -2.803564
v 0.889919 0.646564 -2.803564
v 0.646564 0.889919 -2.803564
v 0.339918 1.046162 -2.803564
v -0.000000 1.100000 -2.803564
v -0.339919 1.046162 -2.803564
v -0.646564 0.889919 -2.803564
v -0.889919 0.646563 -2.803564
v -1.046162 0.339918 -2.803564
v -1.100000 -0.000001 -2.803564
v -1.046162 -0.339920 -2.803564
v -0.889918 -0.646565 -2.803564
v -0.646563 -0.889919 -2.803564
v -0.339917 -1.046162 -2.803564
v 0.691857 0.462304 -3.082554
vt 0.246623 0.034448
vt 0.228519 0.042939
vt 0.212799 0.017192
vt 0.236880 0.005898
vt 0.266091 0.547706
vt 0.239493 0.547707
vt 0.239493 0.483947
vt 0.266090 0.483947
vt 0.292689 0.547706
vt 0.319287 0.547706
vt 0.319287 0.611466
vt 0.292689 0.611466
vt 0.532300 0.976436
vt 0.541852 0.954223
vt 0.594279 0.975452
vt 0.583771 0.999887
vt 0.077406 0.145197
vt 0.077405 0.121017
vt 0.154689 0.121014
vt 0.154690 0.145194
vt 0.583771 0.483945
vt 0.594279 0.508380
vt 0.541852 0.529609
vt 0.532300 0.507396
vt 0.266141 0.030099
vt 0.262840 0.000113
vt 0.292688 0.483947
vt 0.189030 0.353314
vt 0.208048 0.359493
vt 0.228045 0.359493
vt 0.247063 0.353314
vt 0.172852 0.341560
vt 0.265269 0.340019
vt 0.161098 0.325382
vt 0.154919 0.306364
vt 0.274994 0.325382
vt 0.281173 0.306364
vt 0.154919 0.286367
vt 0.281173 0.286367
vt 0.161099 0.267349
vt 0.274994 0.267349
vt 0.172852 0.251172
vt 0.263240 0.251172
vt 0.189030 0.239418
vt 0.247063 0.239418
vt 0.208048 0.233239
vt 0.228045 0.233239
vt 0.077409 0.266093
vt 0.077409 0.241914
vt 0.154693 0.241914
vt 0.154693 0.266094
vt 0.077404 0.386992
vt 0.077405 0.362812
vt 0.154691 0.362815
vt 0.154690 0.386995
vt 0.077400 0.024297
vt 0.077398 0.000117
vt 0.154684 0.000113
vt 0.154685 0.024294
vt 0.077404 0.096837
vt 0.154688 0.096834
vt 0.077409 0.217735
vt 0.154692 0.217734
vt 0.077406 0.338632
vt 0.154691 0.338634
vt 0.077399 0.483715
vt 0.077401 0.459534
vt 0.154688 0.459538
vt 0.154687 0.483719
vt 0.077402 0.072657
vt 0.154687 0.072654
vt 0.077408 0.193557
vt 0.154692 0.193554
vt 0.077407 0.314452
vt 0.154692 0.314454
vt 0.077402 0.435353
vt 0.154689 0.435357
vt 0.077401 0.048477
vt 0.154686 0.048473
vt 0.077407 0.169377
vt 0.154691 0.169374
vt 0.077408 0.290273
vt 0.154692 0.290274
vt 0.077403 0.411173
vt 0.154689 0.411176
vt 0.345885 0.547706
vt 0.345885 0.611466
vt 0.000132 0.217741
vt 0.000131 0.193563
vt 0.000127 0.266093
vt 0.000127 0.241913
vt 0.000124 0.314450
vt 0.000125 0.290270
vt 0.000120 0.362809
vt 0.000121 0.338629
vt 0.000117 0.411169
vt 0.000118 0.386988
vt 0.000113 0.459530
vt 0.000115 0.435349
vt 0.000115 0.024302
vt 0.000113 0.000122
vt 0.000117 0.072662
vt 0.000116 0.048481
vt 0.000120 0.121021
vt 0.000119 0.096841
vt 0.000123 0.169381
vt 0.000121 0.145201
vt 0.286137 0.030099
vt 0.289438 0.000113
vt 0.305655 0.034449
vt 0.315399 0.005898
vt 0.323760 0.042940
vt 0.339480 0.017192
vt 0.319286 0.483946
vt 0.345885 0.483946
vt 0.372483 0.547706
vt 0.372483 0.483946
vt 0.372483 0.611466
vt 0.399081 0.547706
vt 0.399081 0.611466
vt 0.425680 0.547706
vt 0.425680 0.611466
vt 0.630694 0.636034
vt 0.634658 0.662335
vt 0.578561 0.669569
vt 0.574957 0.645659
vt 0.625608 0.609927
vt 0.570334 0.621925
vt 0.619412 0.584061
vt 0.564701 0.598410
vt 0.339584 0.055165
vt 0.360529 0.033453
vt 0.352371 0.070540
vt 0.377537 0.053903
vt 0.367163 0.110150
vt 0.361507 0.088327
vt 0.389689 0.077563
vt 0.396405 0.103299
vt 0.399081 0.483945
vt 0.425680 0.483945
vt 0.452278 0.547706
vt 0.452278 0.483945
vt 0.452278 0.611467
vt 0.478876 0.547706
vt 0.478876 0.611467
vt 0.505475 0.547706
vt 0.505475 0.611467
vt 0.612116 0.558483
vt 0.558068 0.575158
vt 0.603733 0.533241
vt 0.550447 0.552210
vt 0.367321 0.127724
vt 0.397412 0.129879
vt 0.363719 0.147394
vt 0.392621 0.156042
vt 0.355924 0.165809
vt 0.382253 0.180537
vt 0.344311 0.182089
vt 0.366807 0.202190
vt 0.329435 0.195453
vt 0.347020 0.219966
vt 0.312009 0.205261
vt 0.323841 0.233012
vt 0.190772 0.088325
vt 0.185724 0.107673
vt 0.155876 0.103296
vt 0.162591 0.077560
vt 0.154919 0.129876
vt 0.185004 0.127657
vt 0.478876 0.483945
vt 0.505475 0.483945
vt 0.026711 0.547708
vt 0.000114 0.547708
vt 0.000113 0.483949
vt 0.026711 0.483948
vt 0.532073 0.483945
vt 0.532073 0.547706
vt 0.026712 0.611467
vt 0.000114 0.611467
vt 0.053310 0.611466
vt 0.053309 0.547707
vt 0.199909 0.070538
vt 0.174744 0.053902
vt 0.212695 0.055164
vt 0.191751 0.033452
vt 0.532073 0.611467
vt 0.053309 0.483948
vt 0.079907 0.547707
vt 0.079906 0.483948
vt 0.106505 0.547707
vt 0.106504 0.483948
vt 0.133102 0.547707
vt 0.133102 0.483948
vt 0.159700 0.547707
vt 0.159700 0.483948
vt 0.186298 0.547707
vt 0.186297 0.483947
vt 0.212895 0.547707
vt 0.212895 0.483947
vt 0.079907 0.611466
vt 0.106505 0.611466
vt 0.133102 0.611466
vt 0.159700 0.611466
vt 0.186298 0.611466
vt 0.212896 0.611466
vt 0.239493 0.611466
vt 0.266091 0.611466
vt 0.550447 0.931622
vt 0.603733 0.950591
vt 0.612115 0.925349
vt 0.558067 0.908674
vt 0.619412 0.899771
vt 0.564700 0.885422
vt 0.625608 0.873905
vt 0.570333 0.861907
vt 0.630693 0.847798
vt 0.574957 0.838173
vt 0.634658 0.821497
vt 0.578561 0.814263
vt 0.637496 0.795051
vt 0.581140 0.790221
vt 0.639200 0.768508
vt 0.582690 0.766091
vt 0.639769 0.741916
vt 0.583207 0.741916
vt 0.639200 0.715324
vt 0.582690 0.717741
vt 0.637496 0.688781
vt 0.581140 0.693611
vn -0.419599 0.000000 -0.907682
vn -0.399060 -0.129643 -0.907682
vn -0.885372 -0.287667 -0.365093
vn -0.930937 0.000000 -0.365093
vn -0.309000 0.951048 0.000000
vn -0.587756 0.809015 0.000000
vn -0.586413 0.807123 0.067995
vn -0.308298 0.948851 0.067995
vn 0.000000 1.000000 0.000000
vn 0.309000 0.951048 0.000000
vn 0.287667 0.885372 -0.365093
vn 0.000000 0.930937 -0.365093
vn 0.257485 -0.961913 0.091556
vn 0.052339 -0.994415 0.091556
vn 0.000000 -0.997681 0.067995
vn 0.308298 -0.948851 0.067995
vn -0.998596 0.052705 0.000000
vn -0.933439 -0.358715 0.000000
vn -0.951048 -0.309000 0.000000
vn -1.000000 0.000000 0.000000
vn 0.586413 -0.807123 0.067995
vn 0.626850 -0.773705 0.091556
vn -0.399060 0.129643 -0.907682
vn -0.885372 0.287667 -0.365093
vn 0.000000 0.997681 0.067995
vn -0.129643 0.399060 -0.907682
vn 0.000000 0.419599 -0.907682
vn 0.129643 0.399060 -0.907682
vn 0.246864 0.339396 -0.907651
vn -0.246620 0.339457 -0.907682
vn 0.349101 0.243446 -0.904904
vn -0.339457 0.246620 -0.907682
vn 0.398602 0.125553 -0.908475
vn 0.419599 0.000000 -0.907682
vn 0.399060 -0.129643 -0.907682
vn 0.339457 -0.246620 -0.907682
vn -0.339457 -0.246620 -0.907682
vn 0.246620 -0.339457 -0.907682
vn -0.246620 -0.339457 -0.907682
vn 0.129643 -0.399060 -0.907682
vn -0.129643 -0.399060 -0.907682
vn 0.000000 -0.419599 -0.907682
vn -0.052705 0.998596 0.000000
vn -0.258431 0.966002 0.000000
vn 0.998596 -0.052705 0.000000
vn 0.933439 0.358715 0.000000
vn 0.951048 0.309000 0.000000
vn 1.000000 0.000000 0.000000
vn 0.052705 -0.998596 0.000000
vn 0.258431 -0.966002 0.000000
vn 0.309000 -0.951048 0.000000
vn 0.000000 -0.999969 0.000000
vn -0.838862 -0.544298 0.000000
vn -0.809015 -0.587756 0.000000
vn -0.629597 0.776879 0.000000
vn 0.838862 0.544298 0.000000
vn 0.809015 0.587756 0.000000
vn 0.629597 -0.776879 0.000000
vn 0.587756 -0.809015 0.000000
vn -0.544298 -0.838862 0.000000
vn -0.587756 -0.809015 0.000000
vn -0.776879 0.629597 0.000000
vn -0.809015 0.587756 0.000000
vn 0.544298 0.838862 0.000000
vn 0.587756 0.809015 0.000000
vn 0.776879 -0.629597 0.000000
vn 0.809015 -0.587756 0.000000
vn -0.358715 -0.933439 0.000000
vn -0.309000 -0.951048 0.000000
vn -0.966002 0.258431 0.000000
vn -0.951048 0.309000 0.000000
vn 0.358715 0.933439 0.000000
vn 0.966002 -0.258431 0.000000
vn 0.951048 -0.309000 0.000000
vn 0.547319 0.752983 -0.365246
vn -0.626850 0.773705 0.091556
vn -0.773705 0.626850 0.091556
vn -0.052339 0.994415 0.091556
vn -0.257485 0.961913 0.091556
vn 0.542131 0.835261 0.091556
vn 0.357067 0.929563 0.091556
vn 0.929563 0.357067 0.091556
vn 0.835261 0.542131 0.091556
vn 0.961913 -0.257485 0.091556
vn 0.994415 -0.052339 0.091556
vn 0.773705 -0.626850 0.091556
vn -0.542131 -0.835261 0.091556
vn -0.357067 -0.929563 0.091556
vn -0.929563 -0.357067 0.091556
vn -0.835261 -0.542131 0.091556
vn -0.961913 0.257485 0.091556
vn -0.994415 0.052339 0.091556
vn -0.753136 0.547197 -0.365093
vn -0.547197 0.753136 -0.365093
vn -0.287667 0.885372 -0.365093
vn 0.308298 0.948851 0.067995
vn 0.586413 0.807123 0.067995
vn 0.807123 0.586413 0.067995
vn 0.753685 0.547502 -0.363506
vn 0.887112 0.285226 -0.362804
vn 0.930937 0.000000 -0.365093
vn 0.948851 0.308298 0.067995
vn 0.997681 0.000000 0.067995
vn 0.948851 -0.308298 0.067995
vn 0.885372 -0.287667 -0.365093
vn 0.753136 -0.547197 -0.365093
vn 0.547197 -0.753136 -0.365093
vn 0.807123 -0.586413 0.067995
vn 0.287667 -0.885372 -0.365093
vn 0.000000 -0.930937 -0.365093
vn -0.287667 -0.885372 -0.365093
vn 0.000000 -1.000000 0.000000
vn -0.547197 -0.753136 -0.365093
vn -0.753136 -0.547197 -0.365093
vn -0.308298 -0.948851 0.067995
vn -0.586413 -0.807123 0.067995
vn -0.807123 -0.586413 0.067995
vn -0.948851 -0.308298 0.067995
vn -0.997681 0.000000 0.067995
vn -0.948851 0.308298 0.067995
vn -0.807123 0.586413 0.067995
usemtl Material.001
s 1
f 31/1/1 33/2/2 136/3/3
f 31/1/1 136/3/3 135/4/4
f 91/5/5 92/6/6 112/7/7
f 91/5/5 112/7/7 111/8/8
f 90/9/9 89/10/10 129/11/11
f 90/9/9 129/11/11 130/12/12
f 3/13/13 1/14/14 120/15/15
f 3/13/13 120/15/15 101/16/16
f 55/17/17 56/18/18 76/19/19
f 55/17/17 76/19/19 75/20/20
f 101/21/16 102/22/21 5/23/22
f 101/21/16 5/23/22 3/24/13
f 29/25/23 31/1/1 135/4/4
f 29/25/23 135/4/4 134/26/24
f 90/9/9 91/5/5 111/8/8
f 90/9/9 111/8/8 110/27/25
f 23/28/26 21/29/27 19/30/28
f 23/28/26 19/30/28 17/31/29
f 25/32/30 23/28/26 17/31/29
f 25/32/30 17/31/29 140/33/31
f 27/34/32 25/32/30 140/33/31
f 29/35/23 27/34/32 140/33/31
f 29/35/23 140/33/31 14/36/33
f 29/35/23 14/36/33 12/37/34
f 31/38/1 29/35/23 12/37/34
f 31/38/1 12/37/34 10/39/35
f 33/40/2 31/38/1 10/39/35
f 33/40/2 10/39/35 8/41/36
f 35/42/37 33/40/2 8/41/36
f 35/42/37 8/41/36 6/43/38
f 37/44/39 35/42/37 6/43/38
f 37/44/39 6/43/38 4/45/40
f 39/46/41 37/44/39 4/45/40
f 2/47/42 39/46/41 4/45/40
f 50/48/43 51/49/44 71/50/5
f 50/48/43 71/50/5 70/51/9
f 45/52/45 46/53/46 66/54/47
f 45/52/45 66/54/47 65/55/48
f 40/56/49 41/57/50 61/58/51
f 40/56/49 61/58/51 60/59/52
f 56/18/18 57/60/53 77/61/54
f 56/18/18 77/61/54 76/19/19
f 51/49/44 52/62/55 72/63/6
f 51/49/44 72/63/6 71/50/5
f 46/53/46 47/64/56 67/65/57
f 46/53/46 67/65/57 66/54/47
f 41/66/50 42/67/58 62/68/59
f 41/66/50 62/68/59 61/69/51
f 57/60/53 58/70/60 78/71/61
f 57/60/53 78/71/61 77/61/54
f 52/62/55 53/72/62 73/73/63
f 52/62/55 73/73/63 72/63/6
f 47/64/56 48/74/64 68/75/65
f 47/64/56 68/75/65 67/65/57
f 42/67/58 43/76/66 63/77/67
f 42/67/58 63/77/67 62/68/59
f 58/70/60 59/78/68 79/79/69
f 58/70/60 79/79/69 78/71/61
f 53/72/62 54/80/70 74/81/71
f 53/72/62 74/81/71 73/73/63
f 48/74/64 49/82/72 69/83/10
f 48/74/64 69/83/10 68/75/65
f 43/76/66 44/84/73 64/85/74
f 43/76/66 64/85/74 63/77/67
f 59/78/68 40/56/49 60/59/52
f 59/78/68 60/59/52 79/79/69
f 54/80/70 55/17/17 75/20/20
f 54/80/70 75/20/20 74/81/71
f 49/82/72 50/48/43 70/51/9
f 49/82/72 70/51/9 69/83/10
f 44/84/73 45/52/45 65/55/48
f 44/84/73 65/55/48 64/85/74
f 89/10/10 88/86/65 128/87/75
f 89/10/10 128/87/75 129/11/11
f 52/62/55 24/88/76 26/89/77
f 52/62/55 26/89/77 53/72/62
f 50/48/43 20/90/78 22/91/79
f 50/48/43 22/91/79 51/49/44
f 48/74/64 16/92/80 18/93/81
f 48/74/64 18/93/81 49/82/72
f 46/53/46 13/94/82 15/95/83
f 46/53/46 15/95/83 47/64/56
f 44/84/73 9/96/84 11/97/85
f 44/84/73 11/97/85 45/52/45
f 42/67/58 5/98/22 7/99/86
f 42/67/58 7/99/86 43/76/66
f 40/56/49 1/100/14 3/101/13
f 40/56/49 3/101/13 41/57/50
f 58/70/60 36/102/87 38/103/88
f 58/70/60 38/103/88 59/78/68
f 56/18/18 32/104/89 34/105/90
f 56/18/18 34/105/90 57/60/53
f 54/80/70 28/106/91 30/107/92
f 54/80/70 30/107/92 55/17/17
f 27/108/32 29/25/23 134/26/24
f 27/108/32 134/26/24 133/109/93
f 25/110/30 27/108/32 133/109/93
f 25/110/30 133/109/93 132/111/94
f 23/112/26 25/110/30 132/111/94
f 23/112/26 132/111/94 131/113/95
f 89/10/10 90/9/9 110/27/25
f 89/10/10 110/27/25 109/114/96
f 88/86/65 89/10/10 109/114/96
f 88/86/65 109/114/96 108/115/97
f 87/116/57 88/86/65 108/115/97
f 87/116/57 108/115/97 107/117/98
f 88/86/65 87/116/57 127/118/99
f 88/86/65 127/118/99 128/87/75
f 87/116/57 86/119/47 126/120/100
f 87/116/57 126/120/100 127/118/99
f 86/119/47 85/121/48 125/122/101
f 86/119/47 125/122/101 126/120/100
f 107/123/98 108/124/97 16/125/80
f 107/123/98 16/125/80 15/126/83
f 106/127/102 107/123/98 15/126/83
f 106/127/102 15/126/83 13/128/82
f 105/129/103 106/127/102 13/128/82
f 105/129/103 13/128/82 11/130/85
f 21/131/27 23/112/26 131/113/95
f 21/131/27 131/113/95 130/132/12
f 19/133/28 21/131/27 130/132/12
f 19/133/28 130/132/12 129/134/11
f 140/135/31 17/136/29 128/137/75
f 140/135/31 128/137/75 127/138/99
f 86/119/47 87/116/57 107/117/98
f 86/119/47 107/117/98 106/139/102
f 85/121/48 86/119/47 106/139/102
f 85/121/48 106/139/102 105/140/103
f 84/141/74 85/121/48 105/140/103
f 84/141/74 105/140/103 104/142/104
f 85/121/48 84/141/74 124/143/105
f 85/121/48 124/143/105 125/122/101
f 84/141/74 83/144/67 123/145/106
f 84/141/74 123/145/106 124/143/105
f 83/144/67 82/146/59 122/147/107
f 83/144/67 122/147/107 123/145/106
f 104/148/104 105/129/103 11/130/85
f 104/148/104 11/130/85 9/149/84
f 103/150/108 104/148/104 9/149/84
f 103/150/108 9/149/84 7/151/86
f 102/22/21 103/150/108 7/151/86
f 102/22/21 7/151/86 5/23/22
f 129/134/11 128/137/75 17/136/29
f 129/134/11 17/136/29 19/133/28
f 14/152/33 140/135/31 127/138/99
f 14/152/33 127/138/99 126/153/100
f 12/154/34 14/152/33 126/153/100
f 12/154/34 126/153/100 125/155/101
f 10/156/35 12/154/34 125/155/101
f 10/156/35 125/155/101 124/157/105
f 8/158/36 10/156/35 124/157/105
f 8/158/36 124/157/105 123/159/106
f 6/160/38 8/158/36 123/159/106
f 6/160/38 123/159/106 122/161/107
f 4/162/40 6/160/38 122/161/107
f 4/162/40 122/161/107 121/163/109
f 39/164/41 2/165/42 100/166/110
f 39/164/41 100/166/110 139/167/111
f 121/168/109 100/166/110 2/165/42
f 121/168/109 2/165/42 4/169/40
f 83/144/67 84/141/74 104/142/104
f 83/144/67 104/142/104 103/170/108
f 82/146/59 83/144/67 103/170/108
f 82/146/59 103/170/108 102/171/21
f 80/172/112 81/173/51 101/174/16
f 80/172/112 101/174/16 120/175/15
f 102/171/21 101/176/16 81/177/51
f 102/171/21 81/177/51 82/146/59
f 81/173/51 80/172/112 100/178/110
f 81/173/51 100/178/110 121/179/109
f 139/180/111 100/178/110 80/172/112
f 139/180/111 80/172/112 99/181/69
f 37/182/39 39/164/41 139/167/111
f 37/182/39 139/167/111 138/183/113
f 35/184/37 37/182/39 138/183/113
f 35/184/37 138/183/113 137/185/114
f 33/2/2 35/184/37 137/185/114
f 33/2/2 137/185/114 136/3/3
f 82/146/59 81/177/51 121/186/109
f 82/146/59 121/186/109 122/147/107
f 99/181/69 80/172/112 120/175/15
f 99/181/69 120/175/15 119/187/115
f 98/188/61 99/181/69 119/187/115
f 98/188/61 119/187/115 118/189/116
f 97/190/54 98/188/61 118/189/116
f 97/190/54 118/189/116 117/191/117
f 96/192/19 97/190/54 117/191/117
f 96/192/19 117/191/117 116/193/118
f 95/194/20 96/192/19 116/193/118
f 95/194/20 116/193/118 115/195/119
f 94/196/71 95/194/20 115/195/119
f 94/196/71 115/195/119 114/197/120
f 93/198/63 94/196/71 114/197/120
f 93/198/63 114/197/120 113/199/121
f 92/6/6 93/198/63 113/199/121
f 92/6/6 113/199/121 112/7/7
f 99/181/69 98/188/61 138/200/113
f 99/181/69 138/200/113 139/180/111
f 98/188/61 97/190/54 137/201/114
f 98/188/61 137/201/114 138/200/113
f 97/190/54 96/192/19 136/202/3
f 97/190/54 136/202/3 137/201/114
f 96/192/19 95/194/20 135/203/4
f 96/192/19 135/203/4 136/202/3
f 95/194/20 94/196/71 134/204/24
f 95/194/20 134/204/24 135/203/4
f 94/196/71 93/198/63 133/205/93
f 94/196/71 133/205/93 134/204/24
f 93/198/63 92/6/6 132/206/94
f 93/198/63 132/206/94 133/205/93
f 92/6/6 91/5/5 131/207/95
f 92/6/6 131/207/95 132/206/94
f 91/5/5 90/9/9 130/12/12
f 91/5/5 130/12/12 131/207/95
f 1/14/14 38/208/88 119/209/115
f 1/14/14 119/209/115 120/15/15
f 118/210/116 119/209/115 38/208/88
f 118/210/116 38/208/88 36/211/87
f 117/212/117 118/210/116 36/211/87
f 117/212/117 36/211/87 34/213/90
f 116/214/118 117/212/117 34/213/90
f 116/214/118 34/213/90 32/215/89
f 115/216/119 116/214/118 32/215/89
f 115/216/119 32/215/89 30/217/92
f 114/218/120 115/216/119 30/217/92
f 114/218/120 30/217/92 28/219/91
f 113/220/121 114/218/120 28/219/91
f 113/220/121 28/219/91 26/221/77
f 112/222/7 113/220/121 26/221/77
f 112/222/7 26/221/77 24/223/76
f 111/224/8 112/222/7 24/223/76
f 111/224/8 24/223/76 22/225/79
f 110/226/25 111/224/8 22/225/79
f 110/226/25 22/225/79 20/227/78
f 109/228/96 110/226/25 20/227/78
f 109/228/96 20/227/78 18/229/81
f 108/124/97 109/228/96 18/229/81
f 108/124/97 18/229/81 16/125/80
