# Blender v2.65 (sub 0) OBJ File: 'WallGunBase.blend'
# www.blender.org
mtllib GunBarrel.mtl
o Cube.003
v -0.953753 -0.516728 1.001364
v -0.551124 -0.919356 1.001364
v -0.001124 -1.066728 1.001364
v 0.548875 -0.919355 1.001364
v 0.951503 -0.516727 1.001364
v 1.098875 0.033273 1.001364
v 0.951503 0.583273 1.001364
v 0.548875 0.985900 1.001364
v -0.001125 1.133273 1.001364
v -0.551125 0.985900 1.001364
v -0.953753 0.583272 1.001364
v -1.101125 0.033272 1.001364
v -1.101125 0.033272 0.501364
v -0.953753 0.583272 0.501364
v -0.551125 0.985900 0.501364
v -0.001125 1.133273 0.501364
v 0.548875 0.985900 0.501364
v 0.951503 0.583272 0.501364
v 1.098875 0.033273 0.501364
v 0.951503 -0.516727 0.501364
v 0.548875 -0.919355 0.501364
v -0.001124 -1.066728 0.501364
v -0.551124 -0.919356 0.501364
v -0.953752 -0.516728 0.501364
v -1.101125 0.033272 -0.498636
v -0.953753 0.583272 -0.498636
v -0.551125 0.985900 -0.498636
v -0.001125 1.133272 -0.498636
v 0.548875 0.985900 -0.498636
v 0.951503 0.583272 -0.498636
v 1.098875 0.033273 -0.498636
v 0.951503 -0.516727 -0.498636
v 0.548875 -0.919355 -0.498636
v -0.001124 -1.066728 -0.498636
v -0.551124 -0.919356 -0.498636
v -0.953752 -0.516728 -0.498636
v -1.101125 0.033272 -0.998636
v -0.953753 0.583272 -0.998636
v -0.551125 0.985900 -0.998636
v -0.001125 1.133272 -0.998636
v 0.548875 0.985900 -0.998636
v 0.951503 0.583272 -0.998636
v 1.098875 0.033273 -0.998636
v 0.951503 -0.516728 -0.998636
v 0.548876 -0.919356 -0.998636
v -0.001124 -1.066728 -0.998636
v -0.551124 -0.919356 -0.998636
v -0.953752 -0.516729 -0.998636
vt 0.091314 0.666618
vt 0.121712 0.666617
vt 0.121712 0.583305
vt 0.091314 0.583305
vt 0.091316 0.250058
vt 0.121713 0.250059
vt 0.121714 0.166748
vt 0.091317 0.166746
vt 0.091314 0.749931
vt 0.121713 0.749930
vt 0.091315 0.333369
vt 0.121713 0.333371
vt 0.091315 0.833247
vt 0.121714 0.833245
vt 0.091315 0.416681
vt 0.121712 0.416682
vt 0.091316 0.916562
vt 0.121715 0.916561
vt 0.091317 0.999879
vt 0.121716 0.999877
vt 0.091314 0.499993
vt 0.121712 0.499993
vt 0.091318 0.083435
vt 0.121715 0.083437
vt 0.121716 0.000126
vt 0.091319 0.000124
vt 0.030518 0.499991
vt 0.000121 0.499988
vt 0.000119 0.583302
vt 0.030518 0.583304
vt 0.030524 0.000120
vt 0.030523 0.083431
vt 0.030517 0.833249
vt 0.030517 0.916565
vt 0.030520 0.333366
vt 0.030519 0.416678
vt 0.030517 0.666618
vt 0.030517 0.749933
vt 0.030522 0.166743
vt 0.030521 0.250054
vt 0.139260 0.041774
vt 0.169239 0.000118
vt 0.203857 0.000118
vt 0.233836 0.041774
vt 0.121951 0.113925
vt 0.251145 0.113926
vt 0.121951 0.197239
vt 0.251145 0.197239
vt 0.139260 0.269390
vt 0.233836 0.269390
vt 0.169239 0.311047
vt 0.203857 0.311047
vt 0.000127 0.000118
vt 0.000126 0.083429
vt 0.000122 0.416676
vt 0.000118 0.916566
vt 0.000118 0.999882
vt 0.030517 0.999882
vt 0.000118 0.833249
vt 0.000123 0.333364
vt 0.000118 0.749932
vt 0.000124 0.250052
vt 0.000118 0.666616
vt 0.000125 0.166741
vt 0.363265 0.041774
vt 0.333286 0.000118
vt 0.298669 0.000118
vt 0.380574 0.113925
vt 0.268689 0.041774
vt 0.380574 0.197239
vt 0.251380 0.113925
vt 0.363265 0.269390
vt 0.251380 0.197239
vt 0.333286 0.311046
vt 0.268689 0.269390
vt 0.298669 0.311046
vt 0.415427 0.439539
vt 0.415427 0.293222
vt 0.380810 0.293222
vt 0.380810 0.439539
vt 0.415427 0.146434
vt 0.415427 0.000118
vt 0.380810 0.000118
vt 0.380810 0.146435
vt 0.450280 0.292987
vt 0.450280 0.146670
vt 0.415662 0.146670
vt 0.415662 0.292987
vt 0.450280 0.146435
vt 0.450280 0.000118
vt 0.415662 0.000118
vt 0.415662 0.146435
vt 0.415427 0.292987
vt 0.415427 0.146670
vt 0.380810 0.146670
vt 0.380810 0.292987
vt 0.450280 0.439539
vt 0.450280 0.293222
vt 0.415662 0.293222
vt 0.415662 0.439539
vn -0.258818 -0.965926 0.000000
vn -0.258819 0.965926 -0.000000
vn 0.258819 -0.965926 0.000000
vn -0.707107 0.707107 -0.000000
vn 0.707107 -0.707106 0.000000
vn -0.965926 0.258819 -0.000000
vn 0.965926 -0.258819 -0.000000
vn 0.965926 0.258819 -0.000000
vn -0.965926 -0.258819 0.000000
vn 0.707107 0.707107 0.000000
vn -0.707106 -0.707107 -0.000000
vn 0.258819 0.965926 -0.000000
vn 0.000000 0.000000 -1.000000
vn 0.707107 -0.707107 0.000000
vn -0.000001 -0.000000 1.000000
vn -0.000000 -0.000000 1.000000
usemtl Material.001
s off
f 22/1/1 3/2/1 2/3/1
f 22/1/1 2/3/1 23/4/1
f 15/5/2 10/6/2 9/7/2
f 15/5/2 9/7/2 16/8/2
f 21/9/3 4/10/3 3/2/3
f 21/9/3 3/2/3 22/1/3
f 14/11/4 11/12/4 10/6/4
f 14/11/4 10/6/4 15/5/4
f 20/13/5 5/14/5 4/10/5
f 20/13/5 4/10/5 21/9/5
f 13/15/6 12/16/6 11/12/6
f 13/15/6 11/12/6 14/11/6
f 19/17/7 6/18/7 5/14/7
f 19/17/7 5/14/7 20/13/7
f 18/19/8 7/20/8 6/18/8
f 18/19/8 6/18/8 19/17/8
f 24/21/9 1/22/9 12/16/9
f 24/21/9 12/16/9 13/15/9
f 17/23/10 8/24/10 7/25/10
f 17/23/10 7/25/10 18/26/10
f 1/22/11 24/21/11 23/4/11
f 1/22/11 23/4/11 2/3/11
f 16/8/12 9/7/12 8/24/12
f 16/8/12 8/24/12 17/23/12
f 36/27/11 48/28/11 47/29/11
f 36/27/11 47/29/11 35/30/11
f 24/21/11 36/27/11 35/30/11
f 24/21/11 35/30/11 23/4/11
f 18/26/10 30/31/10 29/32/10
f 18/26/10 29/32/10 17/23/10
f 20/13/7 32/33/7 31/34/7
f 20/13/7 31/34/7 19/17/7
f 14/11/6 26/35/6 25/36/6
f 14/11/6 25/36/6 13/15/6
f 22/1/3 34/37/3 33/38/3
f 22/1/3 33/38/3 21/9/3
f 16/8/2 28/39/2 27/40/2
f 16/8/2 27/40/2 15/5/2
f 42/41/13 43/42/13 44/43/13
f 42/41/13 44/43/13 45/44/13
f 41/45/13 42/41/13 45/44/13
f 41/45/13 45/44/13 46/46/13
f 40/47/13 41/45/13 46/46/13
f 40/47/13 46/46/13 47/48/13
f 39/49/13 40/47/13 47/48/13
f 39/49/13 47/48/13 48/50/13
f 39/49/13 48/50/13 38/51/13
f 48/50/13 37/52/13 38/51/13
f 30/31/10 42/53/10 41/54/10
f 30/31/10 41/54/10 29/32/10
f 25/36/9 37/55/9 48/28/9
f 25/36/9 48/28/9 36/27/9
f 31/34/8 43/56/8 42/57/8
f 31/34/8 42/57/8 30/58/8
f 32/33/7 44/59/7 43/56/7
f 32/33/7 43/56/7 31/34/7
f 26/35/6 38/60/6 37/55/6
f 26/35/6 37/55/6 25/36/6
f 33/38/14 45/61/14 44/59/14
f 33/38/14 44/59/14 32/33/14
f 27/40/4 39/62/4 38/60/4
f 27/40/4 38/60/4 26/35/4
f 34/37/3 46/63/3 45/61/3
f 34/37/3 45/61/3 33/38/3
f 28/39/2 40/64/2 39/62/2
f 28/39/2 39/62/2 27/40/2
f 35/30/1 47/29/1 46/63/1
f 35/30/1 46/63/1 34/37/1
f 29/32/12 41/54/12 40/64/12
f 29/32/12 40/64/12 28/39/12
f 5/65/15 6/66/15 7/67/15
f 4/68/16 5/65/16 7/67/16
f 4/68/16 7/67/16 8/69/16
f 3/70/16 4/68/16 8/69/16
f 3/70/16 8/69/16 9/71/16
f 2/72/16 3/70/16 9/71/16
f 2/72/16 9/71/16 10/73/16
f 1/74/16 2/72/16 10/73/16
f 1/74/16 10/73/16 11/75/16
f 12/76/15 1/74/15 11/75/15
usemtl Material
f 17/77/12 29/78/12 28/79/12
f 17/77/12 28/79/12 16/80/12
f 13/81/9 25/82/9 36/83/9
f 13/81/9 36/83/9 24/84/9
f 19/85/8 31/86/8 30/87/8
f 19/85/8 30/87/8 18/88/8
f 21/89/14 33/90/14 32/91/14
f 21/89/14 32/91/14 20/92/14
f 15/93/4 27/94/4 26/95/4
f 15/93/4 26/95/4 14/96/4
f 23/97/1 35/98/1 34/99/1
f 23/97/1 34/99/1 22/100/1
