# Blender v2.65 (sub 0) OBJ File: 'PowerUp.blend'
# www.blender.org
mtllib PowerUp.mtl
o Cube
v 1.000000 1.250000 1.250000
v -1.000000 1.250000 1.250000
v 1.000000 1.250000 -1.250000
v -1.000000 1.250000 -1.250000
v 0.987171 0.250000 -2.633241
v -0.987171 0.250000 -2.633241
v -2.383241 0.250000 -1.237170
v -2.383241 0.250000 1.237171
v -0.987170 0.250000 2.633241
v 0.987171 0.250000 2.633241
v 2.383241 0.250000 1.237171
v 2.383241 0.250000 -1.237170
v 1.000000 -1.250000 1.250000
v -1.000000 -1.250000 1.250000
v 1.000000 -1.250000 -1.250000
v -1.000000 -1.250000 -1.250000
v 0.987171 -0.250000 -2.633241
v -0.987171 -0.250000 -2.633241
v -2.383241 -0.250000 -1.237170
v -2.383241 -0.250000 1.237171
v -0.987170 -0.250000 2.633241
v 0.987171 -0.250000 2.633241
v 2.383241 -0.250000 1.237171
v 2.383241 -0.250000 -1.237170
vt 0.345720 0.543730
vt 0.521808 0.543730
vt 0.521808 0.850797
vt 0.345720 0.850797
vt 0.830116 0.826030
vt 0.917031 0.997065
vt 0.743202 0.997065
vt 0.918161 0.061734
vt 0.919290 0.271382
vt 0.743202 0.271382
vt 0.744332 0.061734
vt 0.142130 0.930274
vt 0.000321 0.999679
vt 0.000321 0.790025
vt 0.522450 0.789382
vt 0.523579 0.579735
vt 0.741430 0.579735
vt 0.742560 0.789382
vt 0.192522 0.987858
vt 0.142772 0.790025
vt 0.293054 0.790025
vt 0.893480 0.825388
vt 0.743202 0.823813
vt 0.743202 0.581310
vt 0.893480 0.579735
vt 0.600751 0.859429
vt 0.742560 0.790024
vt 0.742560 0.999678
vt 0.867670 0.579093
vt 0.717392 0.577517
vt 0.717392 0.273601
vt 0.867670 0.272026
vt 0.566472 0.577517
vt 0.522450 0.577517
vt 0.522450 0.273601
vt 0.566472 0.273601
vt 0.000321 0.543730
vt 0.220431 0.543730
vt 0.220431 0.789384
vt 0.000321 0.789384
vt 0.087235 0.232768
vt 0.000321 0.061734
vt 0.174149 0.061734
vt 0.347978 0.061736
vt 0.173018 0.271382
vt 0.349106 0.271384
vt 0.521808 0.061740
vt 0.434891 0.232774
vt 0.522450 0.000321
vt 0.742561 0.000321
vt 0.741431 0.209969
vt 0.523580 0.209969
vt 0.347978 0.333440
vt 0.521808 0.333439
vt 0.434894 0.504475
vt 0.349108 0.543088
vt 0.173019 0.543088
vt 0.174149 0.333440
vt 0.000321 0.333439
vt 0.087234 0.504473
vt 0.716750 0.272026
vt 0.716750 0.579093
vt 0.347979 0.000323
vt 0.174149 0.000321
vt 0.347978 0.272027
vt 0.521808 0.272026
vt 0.000321 0.000321
vt 0.741431 0.271382
vt 0.523580 0.271382
vt 0.000321 0.272026
vt 0.174149 0.272027
vt 0.521809 0.000326
vn 0.000000 1.000000 -0.000000
vn 0.507802 -0.695898 -0.507802
vn 0.000000 0.810403 0.585873
vn 0.507802 0.695898 0.507802
vn 0.585873 0.810403 0.000000
vn 0.507802 0.695898 -0.507802
vn -0.000000 0.810403 -0.585873
vn -0.507802 0.695898 -0.507802
vn -0.585873 0.810403 0.000000
vn -1.000000 0.000000 0.000000
vn -0.000000 -1.000000 0.000000
vn 0.000000 -0.810403 0.585873
vn 0.507802 -0.695898 0.507802
vn 0.585873 -0.810403 0.000000
vn -0.000000 -0.810403 -0.585873
vn -0.507802 -0.695898 -0.507802
vn -0.585873 -0.810403 0.000000
vn 0.000000 0.000000 1.000000
vn 0.707107 0.000000 -0.707107
vn 1.000000 0.000000 0.000000
vn -0.707107 0.000000 -0.707107
vn 0.707107 0.000000 0.707107
vn -0.000000 0.000000 -1.000000
usemtl Material
s off
f 2/1/1 1/2/1 3/3/1
f 2/1/1 3/3/1 4/4/1
f 2/5/2 9/6/2 8/7/2
f 10/8/3 1/9/3 2/10/3
f 10/8/3 2/10/3 9/11/3
f 11/12/4 1/13/4 10/14/4
f 1/15/5 11/16/5 12/17/5
f 1/15/5 12/17/5 3/18/5
f 5/19/6 3/20/6 12/21/6
f 3/22/7 5/23/7 6/24/7
f 3/22/7 6/24/7 4/25/7
f 7/26/8 4/27/8 6/28/8
f 4/29/9 7/30/9 8/31/9
f 4/29/9 8/31/9 2/32/9
f 20/33/10 8/34/10 7/35/10
f 20/33/10 7/35/10 19/36/10
f 14/37/11 16/38/11 15/39/11
f 14/37/11 15/39/11 13/40/11
f 14/41/6 20/42/6 21/43/6
f 22/44/12 21/43/12 14/45/12
f 22/44/12 14/45/12 13/46/12
f 23/47/13 22/44/13 13/48/13
f 13/49/14 15/50/14 24/51/14
f 13/49/14 24/51/14 23/52/14
f 17/53/2 24/54/2 15/55/2
f 15/56/15 16/57/15 18/58/15
f 15/56/15 18/58/15 17/53/15
f 19/59/16 18/58/16 16/60/16
f 16/61/17 14/62/17 20/33/17
f 16/61/17 20/33/17 19/36/17
f 22/44/18 10/63/18 9/64/18
f 22/44/18 9/64/18 21/43/18
f 17/53/19 5/65/19 12/66/19
f 17/53/19 12/66/19 24/54/19
f 20/42/19 8/67/19 9/64/19
f 20/42/19 9/64/19 21/43/19
f 24/51/20 12/68/20 11/69/20
f 24/51/20 11/69/20 23/52/20
f 19/59/21 7/70/21 6/71/21
f 19/59/21 6/71/21 18/58/21
f 23/47/22 11/72/22 10/63/22
f 23/47/22 10/63/22 22/44/22
f 18/58/23 6/71/23 5/65/23
f 18/58/23 5/65/23 17/53/23
