# Blender v2.65 (sub 0) OBJ File: 'SwivleShip.blend'
# www.blender.org
mtllib SwivleBarrel.mtl
o Cylinder
v 1.687201 0.009232 4.510764
v 1.687202 0.009231 -2.149143
v 1.654781 0.173810 4.510764
v 1.654783 0.173810 -2.149143
v 1.558770 0.332064 4.510764
v 1.558772 0.332063 -2.249143
v 1.402856 0.477911 4.510763
v 1.402857 0.477911 -2.349143
v 1.193031 0.605748 4.510763
v 1.193032 0.605747 -2.499142
v 0.937358 0.710660 4.510763
v 0.937360 0.710660 -2.649143
v 0.645663 0.788617 4.510763
v 0.645665 0.788617 -2.699143
v 0.329156 0.836623 4.510763
v 0.329158 0.836623 -2.749143
v -0.000000 0.852833 4.510763
v 0.000001 0.852832 -2.799143
v -0.329157 0.836623 4.510763
v -0.329156 0.836623 -2.749143
v -0.645664 0.788618 4.510763
v -0.645663 0.788617 -2.699143
v -0.937359 0.710661 4.510763
v -0.937358 0.710660 -2.649143
v -1.193032 0.605748 4.510763
v -1.193031 0.605748 -2.499143
v -1.402857 0.477912 4.510763
v -1.402856 0.477911 -2.349143
v -1.558772 0.332064 4.510763
v -1.558770 0.332064 -2.249143
v -1.654783 0.173810 4.510763
v -1.654782 0.173810 -2.149143
v -1.687202 0.009232 4.510763
v -1.687201 0.009232 -2.149143
v -1.654783 -0.155346 4.510763
v -1.654781 -0.155347 -2.149143
v -1.558771 -0.313600 4.510763
v -1.558770 -0.313600 -2.249143
v -1.402857 -0.459448 4.510763
v -1.402856 -0.459448 -2.349143
v -1.193032 -0.587284 4.510763
v -1.193030 -0.587284 -2.499143
v -0.937359 -0.692196 4.510763
v -0.937357 -0.692197 -2.649143
v -0.645664 -0.770154 4.510763
v -0.645662 -0.770154 -2.699143
v -0.329156 -0.818159 4.510763
v -0.329155 -0.818159 -2.749143
v 0.000001 -0.834369 4.510763
v 0.000002 -0.834369 -2.799143
v 0.329158 -0.818159 4.510763
v 0.329159 -0.818159 -2.749143
v 0.645665 -0.770153 4.510763
v 0.645666 -0.770153 -2.699143
v 0.937360 -0.692196 4.510763
v 0.937361 -0.692196 -2.649143
v 1.193032 -0.587283 4.510763
v 1.193033 -0.587283 -2.499142
v 1.402857 -0.459447 4.510763
v 1.402858 -0.459447 -2.349143
v 1.558771 -0.313599 4.510764
v 1.558772 -0.313599 -2.249143
v 1.654782 -0.155345 4.510764
v 1.654783 -0.155346 -2.149143
v 1.193032 0.605748 0.000000
v 0.937359 0.710661 0.729237
v 0.645664 0.788617 1.005190
v 0.329157 0.836623 1.151282
v -0.000000 0.852833 1.191864
v -0.329157 0.836623 1.151282
v -0.645664 0.788618 1.005189
v -0.937359 0.710661 0.729236
v -1.193031 0.605748 -0.000000
v -0.937358 0.710660 -0.729237
v -0.645663 0.788617 -1.005190
v -0.329156 0.836623 -1.151282
v 0.000001 0.852833 -1.191864
v 0.329157 0.836623 -1.151282
v 0.645665 0.788617 -1.005189
v 0.937359 0.710660 -0.729236
v 1.193033 -0.587283 0.000000
v 0.937360 -0.692196 0.725054
v 0.645665 -0.770153 1.003733
v 0.329158 -0.818159 1.147427
v 0.000001 -0.834368 1.195561
v -0.329156 -0.818159 1.154506
v -0.645663 -0.770153 1.008410
v -0.937358 -0.692196 0.745436
v -1.193031 -0.587284 -0.000000
v -0.937358 -0.692197 -0.735697
v -0.645663 -0.770154 -0.998670
v -0.329155 -0.818159 -1.154506
v 0.000002 -0.834369 -1.195561
v 0.329159 -0.818159 -1.147427
v 0.645666 -0.770153 -1.010357
v 0.937361 -0.692196 -0.716067
vt 0.472674 0.000183
vt 0.472674 0.232722
vt 0.442163 0.232844
vt 0.442163 0.000305
vt 0.411653 0.236648
vt 0.411653 0.000426
vt 0.380664 0.240539
vt 0.380664 0.000580
vt 0.351817 0.245786
vt 0.351817 0.158366
vt 0.351817 0.000580
vt 0.294122 0.252782
vt 0.294123 0.193527
vt 0.322970 0.183875
vt 0.322970 0.251033
vt 0.121040 0.158365
vt 0.121039 0.245785
vt 0.092192 0.240538
vt 0.092193 0.000580
vt 0.121040 0.000580
vt 0.061204 0.236647
vt 0.061205 0.000426
vt 0.030694 0.232842
vt 0.030695 0.000305
vt 0.000183 0.232963
vt 0.000184 0.000426
vt 0.473041 0.000183
vt 0.704962 0.000183
vt 0.705083 0.030775
vt 0.473162 0.030775
vt 0.708878 0.061367
vt 0.473283 0.061367
vt 0.712758 0.092438
vt 0.473436 0.092437
vt 0.473435 0.381675
vt 0.712756 0.381677
vt 0.708875 0.412748
vt 0.473281 0.412746
vt 0.154051 0.261860
vt 0.127671 0.256646
vt 0.113946 0.259293
vt 0.091410 0.266310
vt 0.179696 0.273409
vt 0.070701 0.278973
vt 0.205448 0.290739
vt 0.049150 0.298083
vt 0.227296 0.314568
vt 0.029886 0.322627
vt 0.244786 0.343263
vt 0.015942 0.351393
vt 0.257923 0.375068
vt 0.006230 0.383558
vt 0.264649 0.409049
vt 0.001307 0.417722
vt 0.264649 0.443680
vt 0.000183 0.452334
vt 0.257780 0.477633
vt 0.006902 0.486203
vt 0.248113 0.509699
vt 0.018975 0.518310
vt 0.232274 0.538575
vt 0.037207 0.546235
vt 0.214982 0.562636
vt 0.059016 0.570007
vt 0.193482 0.581711
vt 0.084198 0.588048
vt 0.170876 0.594793
vt 0.109668 0.598694
vt 0.150759 0.601476
vt 0.136682 0.604137
vt 0.705201 0.473931
vt 0.473281 0.473929
vt 0.473160 0.443337
vt 0.705080 0.443339
vt 0.717989 0.352754
vt 0.630802 0.352753
vt 0.655783 0.323829
vt 0.723223 0.323830
vt 0.473435 0.323828
vt 0.605507 0.323829
vt 0.473435 0.352751
vt 0.473436 0.121361
vt 0.630803 0.121361
vt 0.604797 0.150285
vt 0.473436 0.150285
vt 0.473435 0.294904
vt 0.595785 0.294905
vt 0.473436 0.265980
vt 0.590772 0.265981
vt 0.473436 0.237056
vt 0.589093 0.237057
vt 0.473436 0.208133
vt 0.590525 0.208133
vt 0.473436 0.179209
vt 0.595622 0.179209
vt 0.717991 0.121362
vt 0.723224 0.150286
vt 0.656469 0.150286
vt 0.724968 0.179210
vt 0.665644 0.179210
vt 0.726713 0.208134
vt 0.671080 0.208134
vt 0.728457 0.237058
vt 0.672512 0.237058
vt 0.726712 0.265982
vt 0.670833 0.265981
vt 0.724967 0.294906
vt 0.666050 0.294905
vt 0.265275 0.254531
vt 0.265275 0.198638
vt 0.236428 0.256279
vt 0.236428 0.200057
vt 0.207581 0.254530
vt 0.207581 0.198637
vt 0.178733 0.252781
vt 0.178734 0.193527
vt 0.149886 0.251032
vt 0.149887 0.183874
vt 0.149887 0.000580
vt 0.149887 0.132857
vt 0.178734 0.000580
vt 0.178734 0.123204
vt 0.207581 0.000580
vt 0.207581 0.118094
vt 0.236428 0.000580
vt 0.236428 0.116675
vt 0.265276 0.000580
vt 0.265275 0.118094
vt 0.294123 0.000580
vt 0.294123 0.123205
vt 0.322970 0.000580
vt 0.322970 0.132857
vt 0.245831 0.836364
vt 0.229383 0.866849
vt 0.042349 0.866848
vt 0.025902 0.836461
vt 0.258981 0.805422
vt 0.011338 0.805094
vt 0.002396 0.770891
vt 0.267691 0.771563
vt 0.271404 0.736248
vt 0.000183 0.735465
vt 0.269191 0.700822
vt 0.003897 0.700150
vt 0.012607 0.666291
vt 0.260254 0.666621
vt 0.025774 0.635351
vt 0.245698 0.635254
vt 0.229291 0.604747
vt 0.042261 0.604503
vt 0.976033 0.443395
vt 0.959534 0.473931
vt 0.772125 0.473815
vt 0.755663 0.443105
vt 0.989278 0.412400
vt 0.741015 0.411618
vt 0.998066 0.378475
vt 0.732137 0.377321
vt 0.999817 0.343168
vt 0.728823 0.342011
vt 0.997653 0.307768
vt 0.732581 0.306731
vt 0.741331 0.272912
vt 0.988772 0.273583
vt 0.752919 0.242295
vt 0.973441 0.242606
vt 0.769411 0.212038
vt 0.956949 0.212038
vt 0.582957 0.476880
vt 0.595572 0.474298
vt 0.619923 0.478824
vt 0.560979 0.483763
vt 0.646966 0.490430
vt 0.538281 0.496835
vt 0.672981 0.508712
vt 0.518721 0.515395
vt 0.696403 0.531935
vt 0.501468 0.539430
vt 0.715200 0.559988
vt 0.487600 0.568038
vt 0.728299 0.591629
vt 0.477939 0.600031
vt 0.735003 0.625436
vt 0.473041 0.634015
vt 0.735003 0.659885
vt 0.473041 0.668465
vt 0.730105 0.693870
vt 0.479745 0.702271
vt 0.720443 0.725863
vt 0.492843 0.733913
vt 0.706575 0.754471
vt 0.511640 0.761965
vt 0.689323 0.778505
vt 0.535062 0.785188
vt 0.669762 0.797066
vt 0.561660 0.802607
vt 0.649253 0.809632
vt 0.589182 0.814505
vt 0.626841 0.816586
vt 0.613981 0.819183
vn 0.981146 0.193269 0.000000
vn 0.854958 0.518696 0.000000
vn 0.683138 0.730289 0.000000
vn 0.520293 0.853988 -0.000000
vn 0.520294 0.853987 0.000000
vn 0.258194 0.966093 0.000000
vn -0.520294 0.853987 -0.000000
vn -0.520293 0.853988 -0.000000
vn -0.683138 0.730290 -0.000000
vn -0.854958 0.518697 -0.000000
vn -0.981146 0.193268 -0.000000
vn -0.981146 -0.193269 -0.000000
vn -0.854958 -0.518698 -0.000000
vn -0.683138 -0.730290 -0.000000
vn 0.683139 -0.730289 0.000000
vn 0.000000 0.000000 -1.000000
vn 0.721347 0.000001 -0.692574
vn 0.721348 0.000001 -0.692573
vn 0.539877 0.000001 -0.841744
vn 0.581558 0.000001 -0.813505
vn 0.506029 0.000001 -0.862517
vn 0.168948 0.000000 -0.985625
vn 0.168949 0.000000 -0.985625
vn 0.156040 0.000000 -0.987751
vn 0.150180 0.000000 -0.988659
vn -0.150180 -0.000000 -0.988659
vn -0.156040 -0.000000 -0.987751
vn -0.168947 -0.000000 -0.985625
vn -0.506028 -0.000000 -0.862517
vn -0.581558 -0.000000 -0.813505
vn -0.539876 -0.000000 -0.841744
vn -0.539876 -0.000000 -0.841745
vn -0.721346 -0.000000 -0.692574
vn -0.721346 -0.000001 -0.692575
vn 0.981146 -0.193267 0.000000
vn 0.854959 -0.518696 0.000000
vn 0.379623 -0.925141 0.000000
vn 0.379622 -0.925142 0.000000
vn -0.379621 -0.925142 -0.000000
vn 0.258194 -0.966093 -0.000000
vn 0.149959 -0.988692 -0.000000
vn 0.049186 -0.998790 -0.000000
vn -0.049186 -0.998790 -0.000000
vn -0.149958 -0.988692 -0.000000
vn -0.258194 -0.966093 -0.000000
vn -0.520293 -0.853988 -0.000000
vn -0.379622 -0.925142 -0.000000
vn -0.258193 -0.966093 -0.000000
vn 0.520294 -0.853987 0.000000
vn 0.520293 -0.853988 0.000000
vn 0.379622 0.925142 -0.000000
vn 0.149958 0.988692 -0.000000
vn 0.049186 0.998790 -0.000000
vn -0.049186 0.998790 -0.000000
vn -0.149958 0.988692 -0.000000
vn -0.258194 0.966093 -0.000000
vn -0.379621 0.925142 -0.000000
vn -0.379623 0.925141 -0.000000
vn -0.258193 0.966093 0.000000
vn 0.149959 0.988692 0.000000
vn 0.379623 0.925141 0.000000
vn -0.943383 0.000533 -0.331705
vn -0.689018 0.001379 -0.724743
vn -0.416245 0.001502 -0.909251
vn -0.133553 0.000047 -0.991042
vn 0.123065 -0.002055 -0.992396
vn 0.419091 -0.001820 -0.907942
vn 0.678553 -0.004816 -0.734536
vn 0.944809 -0.002044 -0.327614
vn 0.944135 -0.000820 0.329558
vn 0.678560 0.000015 0.734545
vn 0.430506 0.000926 0.902587
vn 0.123066 -0.002055 0.992396
vn -0.133554 0.000047 0.991042
vn -0.408333 -0.000373 0.912833
vn -0.699002 0.001931 0.715117
vn -0.942735 0.001691 0.333537
vn 0.000000 0.000000 1.000000
vn -0.000003 -0.000000 1.000000
usemtl Material
s off
f 1/1/1 2/2/1 4/3/1
f 1/1/1 4/3/1 3/4/1
f 3/4/2 4/3/2 6/5/2
f 3/4/2 6/5/2 5/6/2
f 5/6/3 6/5/3 8/7/3
f 5/6/3 8/7/3 7/8/3
f 8/7/4 10/9/4 65/10/4
f 7/8/5 8/7/5 65/10/5
f 7/8/4 65/10/4 9/11/4
f 14/12/6 79/13/6 80/14/6
f 14/12/6 80/14/6 12/15/6
f 73/16/7 26/17/7 28/18/7
f 73/16/7 28/18/7 27/19/7
f 25/20/8 73/16/8 27/19/8
f 27/19/9 28/18/9 30/21/9
f 27/19/9 30/21/9 29/22/9
f 29/22/10 30/21/10 32/23/10
f 29/22/10 32/23/10 31/24/10
f 31/24/11 32/23/11 34/25/11
f 31/24/11 34/25/11 33/26/11
f 33/27/12 34/28/12 36/29/12
f 33/27/12 36/29/12 35/30/12
f 35/30/13 36/29/13 38/31/13
f 35/30/13 38/31/13 37/32/13
f 37/32/14 38/31/14 40/33/14
f 37/32/14 40/33/14 39/34/14
f 59/35/15 60/36/15 62/37/15
f 59/35/15 62/37/15 61/38/15
f 4/39/16 2/40/16 64/41/16
f 4/39/17 64/41/17 62/42/17
f 4/39/18 62/42/18 6/43/18
f 62/42/19 60/44/19 6/43/19
f 60/44/19 8/45/19 6/43/19
f 60/44/20 58/46/20 8/45/20
f 58/46/20 10/47/20 8/45/20
f 58/46/21 56/48/21 10/47/21
f 56/48/21 12/49/21 10/47/21
f 56/48/22 54/50/22 12/49/22
f 54/50/23 14/51/23 12/49/23
f 54/50/24 52/52/24 14/51/24
f 52/52/24 16/53/24 14/51/24
f 52/52/25 50/54/25 16/53/25
f 50/54/25 18/55/25 16/53/25
f 50/54/26 48/56/26 18/55/26
f 48/56/26 20/57/26 18/55/26
f 48/56/27 46/58/27 20/57/27
f 46/58/27 22/59/27 20/57/27
f 46/58/28 44/60/28 22/59/28
f 44/60/28 24/61/28 22/59/28
f 44/60/29 42/62/29 24/61/29
f 42/62/29 26/63/29 24/61/29
f 42/62/30 40/64/30 26/63/30
f 40/64/30 28/65/30 26/63/30
f 40/64/31 38/66/31 28/65/31
f 38/66/32 30/67/32 28/65/32
f 38/66/33 36/68/33 30/67/33
f 36/68/34 32/69/34 30/67/34
f 36/68/16 34/70/16 32/69/16
f 2/71/35 1/72/35 63/73/35
f 2/71/35 63/73/35 64/74/35
f 61/38/36 62/37/36 64/74/36
f 61/38/36 64/74/36 63/73/36
f 58/75/37 81/76/37 96/77/37
f 58/75/37 96/77/37 56/78/37
f 55/79/38 82/80/38 81/76/38
f 55/79/38 81/76/38 57/81/38
f 41/82/39 89/83/39 88/84/39
f 41/82/39 88/84/39 43/85/39
f 53/86/40 83/87/40 82/80/40
f 53/86/40 82/80/40 55/79/40
f 51/88/41 84/89/41 83/87/41
f 51/88/41 83/87/41 53/86/41
f 49/90/42 85/91/42 84/89/42
f 49/90/42 84/89/42 51/88/42
f 47/92/43 86/93/43 85/91/43
f 47/92/43 85/91/43 49/90/43
f 45/94/44 87/95/44 86/93/44
f 45/94/44 86/93/44 47/92/44
f 43/85/45 88/84/45 87/95/45
f 43/85/45 87/95/45 45/94/45
f 40/33/46 42/96/46 89/83/46
f 39/34/46 40/33/46 89/83/46
f 39/34/46 89/83/46 41/82/46
f 44/97/47 90/98/47 89/83/47
f 44/97/47 89/83/47 42/96/47
f 46/99/48 91/100/48 90/98/48
f 46/99/48 90/98/48 44/97/48
f 48/101/44 92/102/44 91/100/44
f 48/101/44 91/100/44 46/99/44
f 50/103/43 93/104/43 92/102/43
f 50/103/43 92/102/43 48/101/43
f 52/105/42 94/106/42 93/104/42
f 52/105/42 93/104/42 50/103/42
f 54/107/41 95/108/41 94/106/41
f 54/107/41 94/106/41 52/105/41
f 56/78/40 96/77/40 95/108/40
f 56/78/40 95/108/40 54/107/40
f 81/76/49 58/75/49 60/36/49
f 81/76/50 60/36/50 59/35/50
f 57/81/49 81/76/49 59/35/49
f 12/15/51 80/14/51 65/10/51
f 12/15/51 65/10/51 10/9/51
f 16/109/52 78/110/52 79/13/52
f 16/109/52 79/13/52 14/12/52
f 18/111/53 77/112/53 78/110/53
f 18/111/53 78/110/53 16/109/53
f 20/113/54 76/114/54 77/112/54
f 20/113/54 77/112/54 18/111/54
f 22/115/55 75/116/55 76/114/55
f 22/115/55 76/114/55 20/113/55
f 24/117/56 74/118/56 75/116/56
f 24/117/56 75/116/56 22/115/56
f 26/17/57 73/16/57 74/118/57
f 26/17/57 74/118/57 24/117/57
f 23/119/58 72/120/58 73/16/58
f 23/119/58 73/16/58 25/20/58
f 21/121/59 71/122/59 72/120/59
f 21/121/59 72/120/59 23/119/59
f 19/123/55 70/124/55 71/122/55
f 19/123/55 71/122/55 21/121/55
f 17/125/54 69/126/54 70/124/54
f 17/125/54 70/124/54 19/123/54
f 15/127/53 68/128/53 69/126/53
f 15/127/53 69/126/53 17/125/53
f 13/129/60 67/130/60 68/128/60
f 13/129/60 68/128/60 15/127/60
f 11/131/6 66/132/6 67/130/6
f 11/131/6 67/130/6 13/129/6
f 9/11/61 65/10/61 66/132/61
f 9/11/61 66/132/61 11/131/61
f 66/133/62 65/134/62 81/135/62
f 66/133/62 81/135/62 82/136/62
f 67/137/63 66/133/63 82/136/63
f 67/137/63 82/136/63 83/138/63
f 84/139/64 68/140/64 67/137/64
f 84/139/64 67/137/64 83/138/64
f 69/141/65 68/140/65 84/139/65
f 69/141/65 84/139/65 85/142/65
f 70/143/66 69/141/66 85/142/66
f 70/143/66 85/142/66 86/144/66
f 87/145/67 71/146/67 70/143/67
f 87/145/67 70/143/67 86/144/67
f 88/147/68 72/148/68 71/146/68
f 88/147/68 71/146/68 87/145/68
f 73/149/69 72/148/69 88/147/69
f 73/149/69 88/147/69 89/150/69
f 74/151/70 73/152/70 89/153/70
f 74/151/70 89/153/70 90/154/70
f 75/155/71 74/151/71 90/154/71
f 75/155/71 90/154/71 91/156/71
f 76/157/72 75/155/72 91/156/72
f 76/157/72 91/156/72 92/158/72
f 77/159/73 76/157/73 92/158/73
f 77/159/73 92/158/73 93/160/73
f 78/161/74 77/159/74 93/160/74
f 78/161/74 93/160/74 94/162/74
f 95/163/75 79/164/75 78/161/75
f 95/163/75 78/161/75 94/162/75
f 96/165/76 80/166/76 79/164/76
f 96/165/76 79/164/76 95/163/76
f 81/167/77 65/168/77 80/166/77
f 81/167/77 80/166/77 96/165/77
f 63/169/78 1/170/78 3/171/78
f 63/169/78 3/171/78 61/172/78
f 3/171/78 5/173/78 61/172/78
f 5/173/79 59/174/79 61/172/79
f 5/173/79 7/175/79 59/174/79
f 7/175/78 57/176/78 59/174/78
f 7/175/78 9/177/78 57/176/78
f 9/177/78 55/178/78 57/176/78
f 9/177/78 11/179/78 55/178/78
f 11/179/78 53/180/78 55/178/78
f 11/179/78 13/181/78 53/180/78
f 13/181/78 51/182/78 53/180/78
f 13/181/78 15/183/78 51/182/78
f 15/183/78 49/184/78 51/182/78
f 15/183/78 17/185/78 49/184/78
f 17/185/78 47/186/78 49/184/78
f 17/185/78 19/187/78 47/186/78
f 19/187/78 45/188/78 47/186/78
f 19/187/78 21/189/78 45/188/78
f 21/189/78 43/190/78 45/188/78
f 21/189/78 23/191/78 43/190/78
f 23/191/78 41/192/78 43/190/78
f 23/191/78 25/193/78 41/192/78
f 25/193/78 39/194/78 41/192/78
f 25/193/78 27/195/78 39/194/78
f 27/195/79 37/196/79 39/194/79
f 27/195/79 29/197/79 37/196/79
f 29/197/78 35/198/78 37/196/78
f 29/197/78 31/199/78 35/198/78
f 31/199/78 33/200/78 35/198/78
