# Blender v2.65 (sub 0) OBJ File: 'WallGunBase.blend'
# www.blender.org
mtllib WallGunPt3.mtl
v 1.681546 0.000818 1.119790
v 3.681545 0.000818 1.119790
v 1.681546 0.550818 0.972418
v 3.681545 0.550818 0.972418
v 1.681546 0.953446 0.569790
v 3.681545 0.953446 0.569790
v 1.681546 1.100818 0.019790
v 3.681545 1.100818 0.019790
v 1.681546 0.953446 -0.530210
v 3.681545 0.953446 -0.530210
v 1.681546 0.550818 -0.932838
v 3.681545 0.550818 -0.932838
v 1.681546 0.000818 -1.080210
v 3.681545 0.000819 -1.080210
v 1.681546 -0.549182 -0.932838
v 3.681545 -0.549181 -0.932838
v 1.681546 -0.951810 -0.530211
v 3.681545 -0.951809 -0.530211
v 1.681546 -1.099182 0.019789
v 3.681545 -1.099182 0.019789
v 1.681546 -0.951810 0.569789
v 3.681545 -0.951810 0.569789
v 1.681546 -0.549182 0.972417
v 3.681545 -0.549182 0.972417
vt 0.000054 0.749971
vt 0.292729 0.749971
vt 0.292729 0.833296
vt 0.000054 0.833296
vt 0.292729 0.916621
vt 0.000054 0.916621
vt 0.292729 0.999946
vt 0.000054 0.999946
vt 0.000074 0.000054
vt 0.292739 0.000064
vt 0.292737 0.083386
vt 0.000071 0.083376
vt 0.292734 0.166708
vt 0.000067 0.166699
vt 0.292731 0.250030
vt 0.000063 0.250022
vt 0.292729 0.333352
vt 0.000060 0.333346
vt 0.292728 0.416674
vt 0.000058 0.416671
vt 0.292728 0.499996
vt 0.000056 0.499995
vt 0.292729 0.583320
vt 0.000055 0.583320
vt 0.000054 0.666645
vt 0.292729 0.666645
vn 0.000000 0.000000 1.000000
vn 0.000000 0.499985 0.866024
vn 0.000000 0.866024 0.499985
vn 0.000000 1.000000 0.000000
vn 0.000000 0.866024 -0.499985
vn 0.000000 0.499985 -0.866024
vn 0.000000 0.000000 -1.000000
vn 0.000000 -0.499985 -0.866024
vn 0.000000 -0.866024 -0.499985
vn 0.000000 -1.000000 0.000000
vn 0.000000 -0.866024 0.499985
vn 0.000000 -0.499985 0.866024
g Cube.003_Cube.003_Material.001
usemtl Material.001
s 1
f 1/1/1 2/2/1 4/3/2
f 1/1/1 4/3/2 3/4/2
f 3/4/2 4/3/2 6/5/3
f 3/4/2 6/5/3 5/6/3
f 5/6/3 6/5/3 8/7/4
f 5/6/3 8/7/4 7/8/4
f 7/9/4 8/10/4 10/11/5
f 7/9/4 10/11/5 9/12/5
f 9/12/5 10/11/5 12/13/6
f 9/12/5 12/13/6 11/14/6
f 11/14/6 12/13/6 14/15/7
f 11/14/6 14/15/7 13/16/7
f 13/16/7 14/15/7 16/17/8
f 13/16/7 16/17/8 15/18/8
f 15/18/8 16/17/8 18/19/9
f 15/18/8 18/19/9 17/20/9
f 17/20/9 18/19/9 20/21/10
f 17/20/9 20/21/10 19/22/10
f 19/22/10 20/21/10 22/23/11
f 19/22/10 22/23/11 21/24/11
f 2/2/1 1/1/1 23/25/12
f 2/2/1 23/25/12 24/26/12
f 21/24/11 22/23/11 24/26/12
f 21/24/11 24/26/12 23/25/12
