# Blender v2.65 (sub 0) OBJ File: 'WallGunBase.blend'
# www.blender.org
mtllib WallGunTurret.mtl
o Cube.002
v -0.268290 -1.842870 -0.007788
v -0.268290 -0.890226 -0.007788
v -0.230311 -1.842870 -0.149528
v -0.235808 -0.898324 -0.148206
v -0.126550 -1.842870 -0.253288
v -0.126550 -0.938503 -0.253288
v 0.015190 -1.842870 -0.291268
v 0.015190 -0.940903 -0.291268
v 0.156930 -1.842870 -0.253288
v 0.156930 -0.938503 -0.253288
v 0.260690 -1.842870 -0.149528
v 0.262441 -0.898500 -0.148867
v 0.298669 -1.842870 -0.007788
v 0.298669 -0.890226 -0.007788
v 0.260690 -1.842870 0.133952
v 0.260690 -0.899719 0.133952
v 0.156929 -1.842870 0.237712
v 0.156929 -0.927422 0.237712
v 0.015190 -1.842870 0.275692
v 0.015190 -0.964821 0.275692
v -0.126550 -1.842870 0.237713
v -0.126550 -0.927422 0.237713
v -0.230311 -1.842870 0.133952
v -0.230311 -0.899719 0.133952
v -0.485807 -0.831337 -0.148206
v 0.514192 -0.831336 -0.148206
v 0.014192 0.900714 -0.650149
v 0.014192 0.741795 -0.857256
v 0.020393 0.293508 -1.116075
v -0.485808 0.900714 -0.148206
v -0.468770 0.871205 -0.408968
v -0.418820 0.784688 -0.650150
v -0.339361 0.647061 -0.857256
v -0.235807 0.467701 -1.016175
v -0.115217 0.258832 -1.116075
v -0.851833 0.534688 -0.148206
v -0.822324 0.517651 -0.408969
v -0.735807 0.467701 -0.650150
v -0.598180 0.388242 -0.857256
v -0.418820 0.284689 -1.016175
v -0.209951 0.164098 -1.116075
v -0.985808 0.034689 -0.148206
v -0.951733 0.034689 -0.408969
v -0.851833 0.034689 -0.650150
v -0.692914 0.034689 -0.857256
v -0.485807 0.034689 -1.016175
v -0.244626 0.034689 -1.116075
v -0.851833 -0.465311 -0.148206
v -0.822324 -0.448274 -0.408969
v -0.735807 -0.398324 -0.650150
v -0.598180 -0.318865 -0.857256
v -0.418820 -0.215311 -1.016175
v -0.209951 -0.094721 -1.116075
v -0.468770 -0.801827 -0.408968
v -0.418820 -0.715311 -0.650150
v -0.339361 -0.577683 -0.857256
v -0.235807 -0.398324 -1.016175
v -0.115217 -0.189455 -1.116075
v 0.014192 -0.931237 -0.408968
v 0.014192 -0.831336 -0.650149
v 0.014192 -0.672418 -0.857256
v 0.014192 -0.465311 -1.016175
v 0.020393 -0.224130 -1.116075
v 0.497155 -0.801827 -0.408968
v 0.447205 -0.715311 -0.650149
v 0.367746 -0.577683 -0.857256
v 0.264192 -0.398324 -1.016174
v 0.143602 -0.189455 -1.116075
v 0.880217 -0.465311 -0.148206
v 0.850708 -0.448274 -0.408968
v 0.764192 -0.398324 -0.650149
v 0.626565 -0.318865 -0.857256
v 0.447205 -0.215311 -1.016174
v 0.238336 -0.094721 -1.116075
v 1.014192 0.034689 -0.148206
v 0.980118 0.034689 -0.408968
v 0.880217 0.034689 -0.650149
v 0.721299 0.034689 -0.857256
v 0.514192 0.034689 -1.016174
v 0.273012 0.034689 -1.116075
v 0.880217 0.534688 -0.148206
v 0.850708 0.517652 -0.408968
v 0.764192 0.467701 -0.650149
v 0.626565 0.388242 -0.857256
v 0.447205 0.284688 -1.016174
v 0.238336 0.164098 -1.116075
v 0.514192 0.900714 -0.148206
v 0.497155 0.871205 -0.408968
v 0.447205 0.784688 -0.650149
v 0.367746 0.647061 -0.857256
v 0.264192 0.467701 -1.016174
v 0.143602 0.258832 -1.116075
v 0.014192 1.000614 -0.408968
v 0.014192 0.534688 -1.016175
v 0.014193 0.034689 -1.150149
v -0.985809 0.034689 2.748664
v -0.851834 -0.465312 2.748664
v -0.485809 -0.831337 2.748664
v 0.014191 -0.965311 2.748664
v 0.514191 -0.831336 2.748664
v 0.880216 -0.465311 2.748664
v 1.014191 0.034689 2.748665
v 0.880216 0.534689 2.748664
v 0.514191 0.900714 2.748664
v 0.014191 1.034689 2.748664
v -0.485809 0.900714 2.748664
v -0.851834 0.534689 2.748664
v -0.268290 1.912247 -0.007788
v -0.268290 0.959604 -0.007788
v -0.230311 1.912247 -0.149528
v -0.235808 0.967701 -0.148206
v -0.126550 1.912247 -0.253288
v -0.126550 1.007881 -0.253288
v 0.015190 1.912247 -0.291268
v 0.015190 1.010281 -0.291268
v 0.156929 1.912247 -0.253288
v 0.156929 1.007881 -0.253288
v 0.260690 1.912247 -0.149528
v 0.262441 0.967878 -0.148867
v 0.298669 1.912247 -0.007788
v 0.298669 0.959604 -0.007788
v 0.260690 1.912247 0.133952
v 0.260690 0.969096 0.133952
v 0.156929 1.912247 0.237712
v 0.156929 0.996800 0.237712
v 0.015189 1.912247 0.275692
v 0.015189 1.034199 0.275692
v -0.126550 1.912247 0.237713
v -0.126550 0.996800 0.237713
v -0.230311 1.912247 0.133952
v -0.230311 0.969096 0.133952
vt 0.947320 0.782725
vt 0.831347 0.782934
vt 0.832301 0.765387
vt 0.947289 0.764861
vt 0.837203 0.746935
vt 0.947299 0.746997
vt 0.837506 0.729072
vt 0.947309 0.729133
vt 0.837223 0.711208
vt 0.947319 0.711270
vt 0.832364 0.693133
vt 0.947329 0.693406
vt 0.831378 0.675400
vt 0.947351 0.675542
vt 0.832556 0.657538
vt 0.947373 0.657678
vt 0.835950 0.639678
vt 0.947394 0.639814
vt 0.840525 0.621820
vt 0.947416 0.621951
vt 0.947416 0.836317
vt 0.840524 0.836509
vt 0.835939 0.818654
vt 0.947384 0.818453
vt 0.705932 0.022528
vt 0.740826 0.000177
vt 0.765223 0.004801
vt 0.730111 0.053322
vt 0.947352 0.800589
vt 0.832535 0.800796
vt 0.616303 0.780510
vt 0.625235 0.795981
vt 0.640705 0.804913
vt 0.658569 0.804913
vt 0.616303 0.762646
vt 0.674040 0.795981
vt 0.625235 0.747176
vt 0.682971 0.780510
vt 0.640705 0.738244
vt 0.682971 0.762646
vt 0.658569 0.738244
vt 0.674039 0.747176
vt 0.420468 0.224935
vt 0.405601 0.235709
vt 0.395496 0.203485
vt 0.547128 0.367837
vt 0.556850 0.420144
vt 0.520223 0.380624
vt 0.227175 0.018652
vt 0.242473 0.000177
vt 0.268335 0.034539
vt 0.363706 0.161248
vt 0.159128 0.381392
vt 0.127338 0.339156
vt 0.568775 0.483401
vt 0.214771 0.550141
vt 0.202845 0.486885
vt 0.818050 0.095780
vt 0.768781 0.111013
vt 0.751113 0.082116
vt 0.810396 0.055944
vt 0.734194 0.138810
vt 0.709753 0.119965
vt 0.783024 0.141126
vt 0.756797 0.158778
vt 0.793380 0.173417
vt 0.778229 0.181459
vt 0.682556 0.100929
vt 0.651194 0.079933
vt 0.714400 0.174545
vt 0.686281 0.166620
vt 0.741364 0.183466
vt 0.768800 0.194454
vt 0.655457 0.158941
vt 0.619832 0.150554
vt 0.710139 0.213253
vt 0.682039 0.216557
vt 0.737441 0.210874
vt 0.765988 0.209526
vt 0.651442 0.220761
vt 0.616303 0.225822
vt 0.696681 0.263361
vt 0.669826 0.278704
vt 0.721054 0.249600
vt 0.744721 0.236805
vt 0.769727 0.223937
vt 0.728598 0.300777
vt 0.710059 0.326116
vt 0.745332 0.278353
vt 0.761682 0.257198
vt 0.779446 0.235803
vt 0.772896 0.321429
vt 0.766815 0.350933
vt 0.779009 0.294633
vt 0.785368 0.268836
vt 0.792122 0.241971
vt 0.190919 0.423628
vt 0.397629 0.252629
vt 0.408512 0.287138
vt 0.420547 0.318502
vt 0.820632 0.323129
vt 0.825779 0.352317
vt 0.816089 0.296213
vt 0.811772 0.269904
vt 0.806971 0.242214
vt 0.880753 0.332421
vt 0.897915 0.361396
vt 0.831694 0.385930
vt 0.865550 0.307023
vt 0.851292 0.283387
vt 0.836917 0.260201
vt 0.820840 0.236131
vt 0.925573 0.294826
vt 0.950808 0.316487
vt 0.902533 0.275579
vt 0.880207 0.257712
vt 0.857116 0.240661
vt 0.831286 0.224316
vt 0.957536 0.244526
vt 0.987125 0.258968
vt 0.928630 0.231924
vt 0.899626 0.221196
vt 0.869169 0.212793
vt 0.836004 0.208080
vt 0.818577 0.135399
vt 0.812912 0.173504
vt 0.799779 0.209234
vt 0.796168 0.017015
vt 0.833070 0.190323
vt 0.942835 0.176851
vt 0.977337 0.183824
vt 0.906822 0.174437
vt 0.869653 0.178073
vt 0.759960 0.384708
vt 0.440677 0.347396
vt 0.490301 0.378133
vt 0.580701 0.546657
vt 0.226697 0.613397
vt 0.592627 0.609914
vt 0.238622 0.676654
vt 0.331916 0.119012
vt 0.095548 0.296920
vt 0.300125 0.076775
vt 0.063758 0.254684
vt 0.670087 0.621917
vt 0.687951 0.621947
vt 0.687425 0.736935
vt 0.669878 0.737889
vt 0.705815 0.621937
vt 0.705876 0.732033
vt 0.723678 0.621927
vt 0.723740 0.731731
vt 0.741542 0.621917
vt 0.741604 0.732013
vt 0.759406 0.621907
vt 0.759679 0.736873
vt 0.777270 0.621885
vt 0.777412 0.737858
vt 0.795134 0.621863
vt 0.795274 0.736681
vt 0.812998 0.621842
vt 0.813134 0.733286
vt 0.830862 0.621820
vt 0.830992 0.728712
vt 0.616496 0.621820
vt 0.634360 0.621852
vt 0.634158 0.733297
vt 0.616303 0.728711
vt 0.250520 0.804281
vt 0.250548 0.739910
vt 0.558046 0.804281
vt 0.565271 0.763704
vt 0.576834 0.721802
vt 0.604552 0.673170
vt 0.594782 0.710229
vt 0.652223 0.621884
vt 0.652016 0.736701
vt 0.741063 0.795981
vt 0.725592 0.804913
vt 0.707728 0.804913
vt 0.749995 0.780510
vt 0.692258 0.795981
vt 0.749995 0.762646
vt 0.683326 0.780510
vt 0.741063 0.747176
vt 0.683326 0.762646
vt 0.725592 0.738244
vt 0.692258 0.747176
vt 0.707728 0.738244
vt 0.992119 0.207780
vt 0.999823 0.226652
vt 0.788009 0.000177
vt 0.031968 0.212447
vt 0.000177 0.170211
vt 0.204446 0.027620
vt 0.156690 0.022989
vt 0.131329 0.008986
vt 0.615948 0.709255
vt 0.640150 0.295032
vt 0.992437 0.188235
vt 0.683192 0.329170
vt 0.661543 0.325139
vt 0.701308 0.338041
vt 0.714904 0.352887
vt 0.724474 0.372307
vt 0.647811 0.417793
vt 0.765401 0.386285
vt 0.702384 0.386285
vt 0.616303 0.472367
vt 0.819975 0.417793
vt 0.616303 0.535383
vt 0.851483 0.472367
vt 0.647811 0.589957
vt 0.851483 0.535383
vt 0.702384 0.621465
vt 0.819975 0.589957
vt 0.765401 0.621465
vn -0.757347 -0.652974 0.006470
vn -0.738945 -0.673727 0.003388
vn -0.677114 -0.677236 -0.287790
vn -0.655293 -0.655263 -0.375713
vn -0.466964 -0.614032 -0.636311
vn -0.375439 -0.653096 -0.657613
vn 0.000671 -0.660298 -0.750969
vn 0.000000 -0.653218 -0.757134
vn 0.469131 -0.614032 -0.634663
vn 0.377758 -0.653188 -0.656209
vn 0.679220 -0.673421 -0.291726
vn 0.655660 -0.653798 -0.377606
vn 0.737175 -0.675680 -0.001160
vn 0.757225 -0.653127 0.001953
vn 0.746330 -0.581530 0.323679
vn 0.655721 -0.653218 0.378582
vn 0.535020 -0.599506 0.595233
vn 0.378552 -0.653218 0.655721
vn 0.000244 -0.707877 0.706320
vn 0.000000 -0.653218 0.757134
vn -0.534776 -0.599719 0.595233
vn -0.378552 -0.653218 0.655721
vn -0.509629 0.858791 -0.052278
vn -0.677114 0.677236 -0.287790
vn -0.466964 0.614032 -0.636311
vn -0.490097 0.834651 -0.251228
vn -0.655721 -0.653218 0.378552
vn -0.746147 -0.581774 0.323679
vn -0.509629 -0.858791 -0.052278
vn 0.509812 -0.858669 -0.052187
vn -0.738945 0.673727 0.003388
vn -0.864223 -0.498947 -0.064211
vn -0.378338 -0.655812 0.653249
vn -0.655721 -0.378552 0.653218
vn 0.864223 -0.498947 -0.064211
vn 0.655721 -0.378552 0.653218
vn 0.378552 -0.655690 0.653249
vn 0.000000 0.717582 -0.696432
vn -0.358776 0.621448 -0.696432
vn -0.435591 0.754479 -0.490860
vn 0.000000 0.871212 -0.490860
vn -0.621448 0.358776 -0.696432
vn -0.754479 0.435591 -0.490860
vn -0.257576 0.446669 -0.856807
vn -0.446791 0.257942 -0.856624
vn -0.138707 0.241890 -0.960326
vn -0.241493 0.139409 -0.960326
vn -0.837794 0.483688 -0.253090
vn -0.864223 0.498947 -0.064211
vn -0.717582 0.000000 -0.696432
vn -0.871212 0.000000 -0.490860
vn -0.515915 0.000000 -0.856624
vn -0.278848 0.000000 -0.960326
vn -0.967406 0.000000 -0.253090
vn -0.997925 0.000000 -0.064211
vn -0.621448 -0.358776 -0.696432
vn -0.754479 -0.435591 -0.490860
vn -0.446791 -0.257942 -0.856624
vn -0.241493 -0.139409 -0.960326
vn -0.837794 -0.483688 -0.253090
vn -0.435591 -0.754479 -0.490860
vn -0.490097 -0.834651 -0.251228
vn -0.358776 -0.621448 -0.696432
vn -0.257576 -0.446669 -0.856807
vn -0.138707 -0.241890 -0.960326
vn 0.000000 -0.871212 -0.490860
vn -0.000580 -0.950133 -0.311747
vn 0.000000 -0.717582 -0.696432
vn 0.000000 -0.515915 -0.856624
vn 0.002960 -0.278909 -0.960295
vn 0.435591 -0.754479 -0.490860
vn 0.490280 -0.834590 -0.251015
vn 0.358776 -0.621448 -0.696432
vn 0.258339 -0.446913 -0.856441
vn 0.140141 -0.241035 -0.960326
vn 0.000153 -0.757134 0.653218
vn 0.754479 -0.435591 -0.490860
vn 0.837794 -0.483688 -0.253090
vn 0.621448 -0.358776 -0.696432
vn 0.446791 -0.257942 -0.856624
vn 0.241493 -0.139409 -0.960326
vn 0.967406 0.000000 -0.253090
vn 0.997925 0.000000 -0.064211
vn 0.871212 0.000000 -0.490860
vn 0.717582 0.000000 -0.696432
vn 0.515915 0.000000 -0.856624
vn 0.278848 0.000000 -0.960326
vn 0.837794 0.483688 -0.253090
vn 0.864223 0.498947 -0.064211
vn 0.754479 0.435591 -0.490860
vn 0.621448 0.358776 -0.696432
vn 0.446791 0.257942 -0.856624
vn 0.241493 0.139409 -0.960326
vn 0.490280 0.834590 -0.251015
vn 0.509812 0.858669 -0.052187
vn 0.435591 0.754479 -0.490860
vn 0.358776 0.621448 -0.696432
vn 0.258339 0.446913 -0.856441
vn 0.140141 0.241035 -0.960326
vn 0.000000 0.515915 -0.856624
vn 0.002960 0.278878 -0.960295
vn -0.000031 0.000000 -1.000000
vn -0.000580 0.950133 -0.311747
vn 0.757134 0.000000 0.653218
vn 0.655721 0.378552 0.653218
vn -0.757134 0.000000 0.653218
vn -0.655721 0.378552 0.653218
vn -0.757347 0.652974 0.006470
vn -0.655293 0.655263 -0.375713
vn -0.375439 0.653096 -0.657613
vn 0.000000 0.653218 -0.757134
vn 0.000671 0.660298 -0.750969
vn 0.377758 0.653188 -0.656209
vn 0.469131 0.614032 -0.634663
vn 0.655660 0.653798 -0.377606
vn 0.679220 0.673421 -0.291726
vn 0.757225 0.653127 0.001953
vn 0.737175 0.675680 -0.001160
vn 0.655721 0.653218 0.378552
vn 0.746330 0.581530 0.323679
vn 0.378552 0.653218 0.655721
vn 0.535020 0.599506 0.595233
vn 0.000000 0.653218 0.757134
vn 0.000244 0.707877 0.706320
vn -0.378552 0.653218 0.655721
vn -0.534776 0.599719 0.595233
vn 0.000153 0.757134 0.653218
vn 0.378552 0.655690 0.653249
vn -0.655721 0.653218 0.378552
vn -0.746147 0.581774 0.323679
vn -0.378338 0.655812 0.653249
usemtl Material.001
s 1
f 1/1/1 2/2/2 4/3/3
f 1/1/1 4/3/3 3/4/4
f 3/4/4 4/3/3 6/5/5
f 3/4/4 6/5/5 5/6/6
f 5/6/6 6/5/5 8/7/7
f 5/6/6 8/7/7 7/8/8
f 7/8/8 8/7/7 10/9/9
f 7/8/8 10/9/9 9/10/10
f 9/10/10 10/9/9 12/11/11
f 9/10/10 12/11/11 11/12/12
f 11/12/12 12/11/11 14/13/13
f 11/12/12 14/13/13 13/14/14
f 13/14/14 14/13/13 16/15/15
f 13/14/14 16/15/15 15/16/16
f 15/16/16 16/15/15 18/17/17
f 15/16/16 18/17/17 17/18/18
f 17/18/18 18/17/17 20/19/19
f 17/18/18 20/19/19 19/20/20
f 19/21/20 20/22/19 22/23/21
f 19/21/20 22/23/21 21/24/22
f 30/25/23 111/26/24 113/27/25
f 30/25/23 113/27/25 31/28/26
f 2/2/2 1/1/1 23/29/27
f 2/2/2 23/29/27 24/30/28
f 21/24/22 22/23/21 24/30/28
f 21/24/22 24/30/28 23/29/27
f 17/31/18 19/32/20 21/33/22
f 17/31/18 21/33/22 23/34/27
f 15/35/16 17/31/18 23/34/27
f 1/36/1 15/35/16 23/34/27
f 1/36/1 13/37/14 15/35/16
f 1/36/1 3/38/4 13/37/14
f 3/38/4 11/39/12 13/37/14
f 3/38/4 5/40/6 11/39/12
f 5/40/6 9/41/10 11/39/12
f 5/40/6 7/42/8 9/41/10
f 4/43/3 2/44/2 25/45/29
f 12/46/11 26/47/30 14/48/13
f 109/49/31 111/50/24 30/51/23
f 48/52/32 25/45/29 98/53/33
f 48/52/32 98/53/33 97/54/34
f 26/47/30 69/55/35 101/56/36
f 26/47/30 101/56/36 100/57/37
f 28/58/38 33/59/39 32/60/40
f 28/58/38 32/60/40 27/61/41
f 33/59/39 39/62/42 38/63/43
f 33/59/39 38/63/43 32/60/40
f 34/64/44 40/65/45 39/62/42
f 34/64/44 39/62/42 33/59/39
f 35/66/46 41/67/47 40/65/45
f 35/66/46 40/65/45 34/64/44
f 31/28/26 37/68/48 36/69/49
f 31/28/26 36/69/49 30/25/23
f 32/60/40 38/63/43 37/68/48
f 32/60/40 37/68/48 31/28/26
f 39/62/42 45/70/50 44/71/51
f 39/62/42 44/71/51 38/63/43
f 40/65/45 46/72/52 45/70/50
f 40/65/45 45/70/50 39/62/42
f 41/67/47 47/73/53 46/72/52
f 41/67/47 46/72/52 40/65/45
f 37/68/48 43/74/54 42/75/55
f 37/68/48 42/75/55 36/69/49
f 38/63/43 44/71/51 43/74/54
f 38/63/43 43/74/54 37/68/48
f 45/70/50 51/76/56 50/77/57
f 45/70/50 50/77/57 44/71/51
f 46/72/52 52/78/58 51/76/56
f 46/72/52 51/76/56 45/70/50
f 47/73/53 53/79/59 52/78/58
f 47/73/53 52/78/58 46/72/52
f 43/74/54 49/80/60 48/81/32
f 43/74/54 48/81/32 42/75/55
f 44/71/51 50/77/57 49/80/60
f 44/71/51 49/80/60 43/74/54
f 50/77/57 55/82/61 54/83/62
f 50/77/57 54/83/62 49/80/60
f 51/76/56 56/84/63 55/82/61
f 51/76/56 55/82/61 50/77/57
f 52/78/58 57/85/64 56/84/63
f 52/78/58 56/84/63 51/76/56
f 53/79/59 58/86/65 57/85/64
f 53/79/59 57/85/64 52/78/58
f 55/82/61 60/87/66 59/88/67
f 55/82/61 59/88/67 54/83/62
f 56/84/63 61/89/68 60/87/66
f 56/84/63 60/87/66 55/82/61
f 57/85/64 62/90/69 61/89/68
f 57/85/64 61/89/68 56/84/63
f 58/86/65 63/91/70 62/90/69
f 58/86/65 62/90/69 57/85/64
f 60/87/66 65/92/71 64/93/72
f 60/87/66 64/93/72 59/88/67
f 61/89/68 66/94/73 65/92/71
f 61/89/68 65/92/71 60/87/66
f 62/90/69 67/95/74 66/94/73
f 62/90/69 66/94/73 61/89/68
f 63/91/70 68/96/75 67/95/74
f 63/91/70 67/95/74 62/90/69
f 99/97/76 98/53/33 25/45/29
f 24/98/28 99/97/76 25/45/29
f 24/98/28 22/99/21 99/97/76
f 22/99/21 20/100/19 99/97/76
f 24/98/28 25/45/29 2/44/2
f 65/92/71 71/101/77 70/102/78
f 65/92/71 70/102/78 64/93/72
f 66/94/73 72/103/79 71/101/77
f 66/94/73 71/101/77 65/92/71
f 67/95/74 73/104/80 72/103/79
f 67/95/74 72/103/79 66/94/73
f 68/96/75 74/105/81 73/104/80
f 68/96/75 73/104/80 67/95/74
f 70/102/78 76/106/82 75/107/83
f 70/102/78 75/107/83 69/108/35
f 71/101/77 77/109/84 76/106/82
f 71/101/77 76/106/82 70/102/78
f 72/103/79 78/110/85 77/109/84
f 72/103/79 77/109/84 71/101/77
f 73/104/80 79/111/86 78/110/85
f 73/104/80 78/110/85 72/103/79
f 74/105/81 80/112/87 79/111/86
f 74/105/81 79/111/86 73/104/80
f 76/106/82 82/113/88 81/114/89
f 76/106/82 81/114/89 75/107/83
f 77/109/84 83/115/90 82/113/88
f 77/109/84 82/113/88 76/106/82
f 78/110/85 84/116/91 83/115/90
f 78/110/85 83/115/90 77/109/84
f 79/111/86 85/117/92 84/116/91
f 79/111/86 84/116/91 78/110/85
f 80/112/87 86/118/93 85/117/92
f 80/112/87 85/117/92 79/111/86
f 82/113/88 88/119/94 87/120/95
f 82/113/88 87/120/95 81/114/89
f 83/115/90 89/121/96 88/119/94
f 83/115/90 88/119/94 82/113/88
f 84/116/91 90/122/97 89/121/96
f 84/116/91 89/121/96 83/115/90
f 85/117/92 91/123/98 90/122/97
f 85/117/92 90/122/97 84/116/91
f 86/118/93 92/124/99 91/123/98
f 86/118/93 91/123/98 85/117/92
f 94/125/100 34/64/44 33/59/39
f 94/125/100 33/59/39 28/58/38
f 29/126/101 35/66/46 34/64/44
f 29/126/101 34/64/44 94/125/100
f 95/127/102 35/66/46 29/126/101
f 27/61/41 32/60/40 31/28/26
f 27/61/41 31/28/26 93/128/103
f 95/127/102 41/67/47 35/66/46
f 95/127/102 47/73/53 41/67/47
f 95/127/102 53/79/59 47/73/53
f 95/127/102 58/86/65 53/79/59
f 95/127/102 63/91/70 58/86/65
f 95/127/102 68/96/75 63/91/70
f 95/127/102 74/105/81 68/96/75
f 95/127/102 80/112/87 74/105/81
f 95/127/102 86/118/93 80/112/87
f 95/127/102 92/124/99 86/118/93
f 95/127/102 29/129/101 92/124/99
f 89/121/96 27/130/41 93/131/103
f 89/121/96 93/131/103 88/119/94
f 90/122/97 28/132/38 27/130/41
f 90/122/97 27/130/41 89/121/96
f 91/123/98 94/133/100 28/132/38
f 91/123/98 28/132/38 90/122/97
f 92/124/99 29/129/101 94/133/100
f 92/124/99 94/133/100 91/123/98
f 64/93/72 70/102/78 69/108/35
f 64/93/72 69/108/35 26/134/30
f 20/100/19 100/57/37 99/97/76
f 20/100/19 18/135/17 100/57/37
f 18/135/17 16/136/15 100/57/37
f 16/136/15 26/47/30 100/57/37
f 16/136/15 14/48/13 26/47/30
f 69/55/35 75/137/83 102/138/104
f 69/55/35 102/138/104 101/56/36
f 75/137/83 81/139/89 103/140/105
f 75/137/83 103/140/105 102/138/104
f 42/141/55 48/52/32 97/54/34
f 42/141/55 97/54/34 96/142/106
f 36/143/49 42/141/55 96/142/106
f 36/143/49 96/142/106 107/144/107
f 108/145/108 110/146/109 111/147/24
f 108/145/108 111/147/24 109/148/31
f 110/146/109 112/149/110 113/150/25
f 110/146/109 113/150/25 111/147/24
f 112/149/110 114/151/111 115/152/112
f 112/149/110 115/152/112 113/150/25
f 114/151/111 116/153/113 117/154/114
f 114/151/111 117/154/114 115/152/112
f 116/153/113 118/155/115 119/156/116
f 116/153/113 119/156/116 117/154/114
f 118/155/115 120/157/117 121/158/118
f 118/155/115 121/158/118 119/156/116
f 120/157/117 122/159/119 123/160/120
f 120/157/117 123/160/120 121/158/118
f 122/159/119 124/161/121 125/162/122
f 122/159/119 125/162/122 123/160/120
f 124/161/121 126/163/123 127/164/124
f 124/161/121 127/164/124 125/162/122
f 126/165/123 128/166/125 129/167/126
f 126/165/123 129/167/126 127/168/124
f 105/169/127 104/170/128 127/171/124
f 104/170/128 125/172/122 127/171/124
f 104/170/128 123/173/120 125/172/122
f 104/170/128 87/174/95 123/173/120
f 87/174/95 121/175/118 123/173/120
f 130/176/129 108/145/108 109/148/31
f 130/176/129 109/148/31 131/177/130
f 128/166/125 130/176/129 131/177/130
f 128/166/125 131/177/130 129/167/126
f 128/178/125 126/179/123 124/180/121
f 130/181/129 128/178/125 124/180/121
f 130/181/129 124/180/121 122/182/119
f 108/183/108 130/181/129 122/182/119
f 108/183/108 122/182/119 120/184/117
f 108/183/108 120/184/117 110/185/109
f 120/184/117 118/186/115 110/185/109
f 118/186/115 112/187/110 110/185/109
f 118/186/115 116/188/113 112/187/110
f 116/188/113 114/189/111 112/187/110
f 87/120/95 88/119/94 117/190/114
f 87/120/95 117/190/114 119/191/116
f 113/27/25 115/192/112 93/128/103
f 113/27/25 93/128/103 31/28/26
f 106/193/131 105/194/127 30/51/23
f 105/194/127 131/195/130 30/51/23
f 105/194/127 129/196/126 131/195/130
f 105/194/127 127/197/124 129/196/126
f 131/195/130 109/49/31 30/51/23
f 121/175/118 87/174/95 119/198/116
f 49/80/60 54/83/62 25/199/29
f 49/80/60 25/199/29 48/81/32
f 117/190/114 88/119/94 93/131/103
f 117/190/114 93/131/103 115/200/112
f 36/143/49 107/144/107 106/193/131
f 36/143/49 106/193/131 30/51/23
f 87/174/95 104/170/128 103/140/105
f 87/174/95 103/140/105 81/139/89
f 54/83/62 6/201/5 4/202/3
f 54/83/62 4/202/3 25/199/29
f 59/88/67 8/203/7 6/201/5
f 59/88/67 6/201/5 54/83/62
f 64/93/72 10/204/9 8/203/7
f 64/93/72 8/203/7 59/88/67
f 26/134/30 12/205/11 10/204/9
f 26/134/30 10/204/9 64/93/72
usemtl Material.001_NONE
f 103/206/105 101/207/36 102/208/104
f 103/206/105 104/209/128 101/207/36
f 104/209/128 100/210/37 101/207/36
f 104/209/128 105/211/127 100/210/37
f 105/211/127 99/212/76 100/210/37
f 105/211/127 106/213/131 99/212/76
f 106/213/131 98/214/33 99/212/76
f 106/213/131 107/215/107 98/214/33
f 107/215/107 97/216/34 98/214/33
f 107/215/107 96/217/106 97/216/34
