# Blender v2.65 (sub 0) OBJ File: 'rearGun.blend'
# www.blender.org
mtllib rearGun.mtl
o Cube
v -0.029067 1.344563 -1.167150
v -1.290185 0.862220 -0.396882
v -0.040613 1.352207 0.387261
v 1.224920 0.873850 -0.378259
v 0.757472 0.088232 -1.635524
v -0.796947 0.081047 -1.647020
v -0.815606 0.093387 0.868088
v 0.738812 0.100571 0.879584
v 1.232051 -0.680602 -0.370554
v -0.017521 -1.170589 -1.154697
v -1.283054 -0.692232 -0.389177
v -0.029067 -1.162945 0.399714
v -0.770329 1.281170 -0.851947
v -0.777119 1.285663 0.061714
v -0.035853 1.569175 -0.391043
v -0.480412 0.822012 -1.586754
v -1.221677 0.538493 -1.134003
v 0.701226 1.292500 0.072659
v 0.708007 1.288007 -0.840999
v 1.170326 0.549556 -1.116299
v 0.433245 0.826235 -1.579997
v -0.018100 0.083556 -1.862060
v -1.217493 -0.375191 -1.129475
v -1.507411 0.083969 -0.394664
v -1.232656 0.545750 0.344341
v -0.498170 0.833757 0.805247
v 0.415497 0.837982 0.812009
v 1.159359 0.556810 0.362039
v 1.449276 0.097649 -0.372772
v 1.174522 -0.364132 -1.111776
v 0.440036 -0.652138 -1.572683
v -0.473631 -0.656364 -1.579445
v -1.228460 -0.367938 0.348863
v 1.163543 -0.356875 0.366567
v 0.718985 -1.104044 -0.829150
v -0.759360 -1.110881 -0.840095
v -0.766141 -1.106388 0.073563
v -0.491379 -0.644616 0.812561
v 0.422278 -0.640394 0.819319
v 0.712194 -1.099552 0.084511
v -0.022281 -1.387557 -0.376393
v -0.821042 0.096984 1.600847
v 0.733376 0.104168 1.612344
v -0.503607 0.837354 1.538006
v 0.410060 0.841579 1.544768
v -0.045471 0.101660 1.343397
v -0.496816 -0.641019 1.545320
v 0.416841 -0.636796 1.552078
vt 0.854770 0.671938
vt 0.878404 0.886305
vt 0.790980 0.760491
vt 0.246769 0.196105
vt 0.291759 0.000137
vt 0.318432 0.236511
vt 0.799008 0.580446
vt 0.865203 0.498183
vt 0.946589 0.644222
vt 0.262246 0.356754
vt 0.717549 0.806421
vt 0.767086 0.997133
vt 0.649377 0.955788
vt 0.751053 0.498048
vt 0.732856 0.638128
vt 0.688929 0.495315
vt 0.854475 0.324504
vt 0.799104 0.416737
vt 0.790571 0.238143
vt 0.381887 0.323328
vt 0.473746 0.350292
vt 0.392345 0.496868
vt 0.187238 0.308669
vt 0.645594 0.690231
vt 0.734584 0.360218
vt 0.877380 0.107551
vt 0.326405 0.414596
vt 0.137131 0.470315
vt 0.215793 0.489927
vt 0.169772 0.682798
vt 0.554274 0.272887
vt 0.609701 0.479170
vt 0.542937 0.579168
vt 0.477591 0.422053
vt 0.718273 0.198837
vt 0.658808 0.314329
vt 0.642535 0.063809
vt 0.381727 0.670962
vt 0.405532 0.886559
vt 0.317471 0.759806
vt 0.278033 0.494855
vt 0.325853 0.578548
vt 0.259102 0.635209
vt 0.172545 0.061195
vt 0.405001 0.107699
vt 0.946589 0.350917
vt 0.084793 0.263978
vt 0.473746 0.643361
vt 0.574181 0.715030
vt 0.559790 0.956110
vt 0.069963 0.563991
vt 0.008681 0.404537
vt 0.763069 0.000137
vt 0.242977 0.805787
vt 0.172860 0.960667
vt 0.098792 0.705299
vt 0.072969 0.935561
vt 0.293425 0.999863
vt 0.474021 0.732651
vt 0.000137 0.701708
vn 0.000000 0.848048 -0.529893
vn -0.501389 0.805139 -0.316691
vn -0.004578 0.999969 -0.004944
vn -0.853023 0.521775 -0.008881
vn -0.806665 0.302805 -0.507492
vn 0.498550 0.809778 -0.309305
vn 0.312693 0.497421 -0.809168
vn -0.305277 0.494583 -0.813715
vn -0.999939 -0.004608 -0.007385
vn -0.007782 0.853206 0.521470
vn -0.505966 0.808191 0.301279
vn -0.490829 0.749962 0.443403
vn 0.848201 0.529649 0.003693
vn 0.493973 0.812830 0.308695
vn 0.803858 0.315195 0.504410
vn 0.531999 -0.001740 -0.846706
vn 0.811274 0.310282 -0.495499
vn 0.814112 -0.307718 -0.492447
vn -0.519395 -0.006592 -0.854488
vn 0.007416 -0.004883 -0.999939
vn -0.300699 -0.505387 -0.808771
vn -0.814112 0.307718 0.492447
vn 0.477248 0.754448 0.450545
vn 0.999939 0.004608 0.007385
vn 0.317301 -0.502518 -0.804224
vn -0.803858 -0.315195 -0.504410
vn -0.905789 -0.002045 0.423658
vn -0.811274 -0.310282 0.495499
vn -0.483963 -0.749992 0.450819
vn 0.484146 -0.745537 0.457961
vn 0.899411 0.006256 0.437025
vn 0.668935 0.006775 0.743248
vn 0.399609 -0.634053 0.661977
vn 0.853023 -0.521775 0.008881
vn 0.806665 -0.302805 0.507492
vn 0.501389 -0.805139 0.316691
vn 0.007782 -0.853206 -0.521470
vn 0.505966 -0.808191 -0.301279
vn 0.004578 -0.999969 0.004944
vn -0.848201 -0.529649 -0.003693
vn -0.493973 -0.812830 -0.308695
vn -0.498550 -0.809778 0.309305
vn 0.393536 0.644124 0.655904
vn -0.409223 0.639973 0.650319
vn -0.679098 0.000549 0.734031
vn 0.000000 -0.848048 0.529893
vn -0.403577 -0.637349 0.656392
vn -0.005829 0.004273 0.999969
usemtl Material.001
s 1
f 1/1/1 13/2/2 15/3/3
f 2/4/4 13/5/2 17/6/5
f 1/1/1 15/3/3 19/7/6
f 1/1/1 19/7/6 21/8/7
f 1/1/1 21/8/7 16/9/8
f 2/4/4 17/6/5 24/10/9
f 3/11/10 14/12/11 26/13/12
f 4/14/13 18/15/14 28/16/15
f 5/17/16 20/18/17 30/19/18
f 6/20/19 22/21/20 32/22/21
f 2/4/4 24/10/9 25/23/22
f 3/11/10 26/13/12 27/24/23
f 4/14/13 28/16/15 29/25/24
f 5/17/16 30/19/18 31/26/25
f 6/20/19 32/22/21 23/27/26
f 7/28/27 33/29/28 38/30/29
f 39/31/30 8/32/31 43/33/32
f 39/31/30 43/33/32 48/34/33
f 9/35/34 34/36/35 40/37/36
f 10/38/37 35/39/38 41/40/39
f 11/41/40 36/42/41 37/43/42
f 15/3/3 14/12/11 3/11/10
f 15/3/3 13/2/2 14/12/11
f 13/5/2 2/4/4 14/44/11
f 17/6/5 16/45/8 6/20/19
f 17/6/5 13/5/2 16/45/8
f 13/2/2 1/1/1 16/9/8
f 19/7/6 18/15/14 4/14/13
f 19/7/6 15/3/3 18/15/14
f 15/3/3 3/11/10 18/15/14
f 21/8/7 20/18/17 5/17/16
f 21/8/7 19/7/6 20/18/17
f 19/7/6 4/14/13 20/18/17
f 16/45/8 22/21/20 6/20/19
f 16/9/8 21/8/7 22/46/20
f 21/8/7 5/17/16 22/46/20
f 24/10/9 23/27/26 11/41/40
f 24/10/9 17/6/5 23/27/26
f 17/6/5 6/20/19 23/27/26
f 26/47/12 25/23/22 7/28/27
f 26/47/12 14/44/11 25/23/22
f 14/44/11 2/4/4 25/23/22
f 28/16/15 27/24/23 8/32/31
f 28/16/15 18/15/14 27/24/23
f 18/15/14 3/11/10 27/24/23
f 30/19/18 29/25/24 9/35/34
f 30/19/18 20/18/17 29/25/24
f 20/18/17 4/14/13 29/25/24
f 32/22/21 31/48/25 10/38/37
f 32/22/21 22/21/20 31/48/25
f 22/46/20 5/17/16 31/26/25
f 25/23/22 33/29/28 7/28/27
f 25/23/22 24/10/9 33/29/28
f 24/10/9 11/41/40 33/29/28
f 8/32/31 27/24/23 45/49/43
f 8/32/31 45/49/43 43/33/32
f 27/24/23 26/13/12 44/50/44
f 27/24/23 44/50/44 45/49/43
f 26/47/12 7/28/27 42/51/45
f 26/47/12 42/51/45 44/52/44
f 29/25/24 34/36/35 9/35/34
f 29/25/24 28/16/15 34/36/35
f 28/16/15 8/32/31 34/36/35
f 31/48/25 35/39/38 10/38/37
f 31/26/25 30/19/18 35/53/38
f 30/19/18 9/35/34 35/53/38
f 23/27/26 36/42/41 11/41/40
f 23/27/26 32/22/21 36/42/41
f 32/22/21 10/38/37 36/42/41
f 38/30/29 37/43/42 12/54/46
f 38/30/29 33/29/28 37/43/42
f 33/29/28 11/41/40 37/43/42
f 39/55/30 38/30/29 12/54/46
f 7/28/27 38/30/29 47/56/47
f 7/28/27 47/56/47 42/51/45
f 38/30/29 39/55/30 48/57/33
f 38/30/29 48/57/33 47/56/47
f 40/58/36 39/55/30 12/54/46
f 40/37/36 34/36/35 39/31/30
f 34/36/35 8/32/31 39/31/30
f 41/40/39 40/58/36 12/54/46
f 41/40/39 35/39/38 40/58/36
f 35/53/38 9/35/34 40/37/36
f 37/43/42 41/40/39 12/54/46
f 37/43/42 36/42/41 41/40/39
f 36/42/41 10/38/37 41/40/39
f 43/33/32 46/59/48 48/34/33
f 45/49/43 46/59/48 43/33/32
f 45/49/43 44/50/44 46/59/48
f 44/52/44 42/51/45 46/60/48
f 48/57/33 46/60/48 47/56/47
f 46/60/48 42/51/45 47/56/47
