# Blender v2.65 (sub 0) OBJ File: 'WallGunBase.blend'
# www.blender.org
mtllib WallGunPt3.mtl
o Cube.003
v -1.000000 0.000000 1.100000
v 1.000000 0.000000 1.100000
v -1.000000 0.550000 0.952628
v 1.000000 0.550000 0.952628
v -1.000000 0.952628 0.550000
v 1.000000 0.952628 0.550000
v -1.000000 1.100000 0.000000
v 1.000000 1.100000 0.000000
v -1.000000 0.952628 -0.550000
v 1.000000 0.952628 -0.550000
v -1.000000 0.550000 -0.952628
v 1.000000 0.550000 -0.952628
v -1.000000 0.000000 -1.100000
v 1.000000 0.000000 -1.100000
v -1.000000 -0.550000 -0.952628
v 1.000000 -0.550000 -0.952628
v -1.000000 -0.952628 -0.550000
v 1.000000 -0.952628 -0.555000
v -1.000000 -1.100000 0.000000
v 1.000000 -1.100000 0.000000
v -1.000000 -0.952628 0.550000
v 1.000000 -0.952628 0.550000
v -1.000000 -0.550000 0.952628
v 1.000000 -0.550000 0.952628
v 0.500000 0.000000 1.100000
v -0.500000 0.550000 0.952628
v -0.500000 0.952628 0.550000
v -0.500000 1.100000 0.000000
v -0.500000 0.952628 -0.550000
v -0.500000 0.550000 -0.952628
v -0.500000 0.000000 -1.100000
v -0.500000 -0.550000 -0.952628
v -0.500000 -0.952628 -0.550000
v -0.500000 -1.100000 0.000000
v -0.500000 -0.952628 0.550000
v -0.500000 -0.550000 0.952628
v -0.500000 0.000000 1.100000
v 0.500000 0.550000 0.952628
v 0.500000 0.952628 0.550000
v 0.500000 1.100000 0.000000
v 0.500000 0.952628 -0.550000
v 0.500000 0.550000 -0.952628
v 0.500000 0.000000 -1.100000
v 0.500000 -0.550000 -0.952628
v 0.500000 -0.952626 -0.550000
v 0.500000 -1.100000 0.000000
v 0.500000 -0.952628 0.550000
v 0.500000 -0.550000 0.952628
vt 0.250043 0.528337
vt 0.250043 0.704420
vt 0.166724 0.704421
vt 0.166723 0.528339
vt 0.083405 0.704421
vt 0.083404 0.528340
vt 0.000086 0.704422
vt 0.000085 0.528341
vt 0.999916 0.528332
vt 0.999916 0.704415
vt 0.916597 0.704415
vt 0.916597 0.528333
vt 0.833278 0.704415
vt 0.833278 0.528333
vt 0.749958 0.704414
vt 0.749958 0.528332
vt 0.666639 0.704414
vt 0.666639 0.528332
vt 0.583321 0.704414
vt 0.583320 0.528332
vt 0.500002 0.704416
vt 0.500001 0.528333
vt 0.416682 0.704418
vt 0.416681 0.528335
vt 0.333362 0.528336
vt 0.333362 0.704419
vt 0.250041 0.000091
vt 0.250041 0.176173
vt 0.166722 0.176175
vt 0.166721 0.000093
vt 0.083403 0.176177
vt 0.083403 0.000095
vt 0.000084 0.176178
vt 0.000084 0.000097
vt 0.999916 0.000088
vt 0.999916 0.176170
vt 0.916597 0.176169
vt 0.916597 0.000087
vt 0.833278 0.176169
vt 0.833278 0.000087
vt 0.749959 0.176168
vt 0.749959 0.000086
vt 0.666639 0.176168
vt 0.666640 0.000085
vt 0.583320 0.176167
vt 0.583320 0.000084
vt 0.500000 0.176168
vt 0.500000 0.000084
vt 0.416680 0.176169
vt 0.416680 0.000086
vt 0.333360 0.000088
vt 0.333361 0.176171
vt 0.570018 0.500226
vt 0.854461 0.500226
vt 0.854461 0.999774
vt 0.570018 0.999773
vt 0.285123 0.500226
vt 0.569566 0.500226
vt 0.569566 0.999774
vt 0.285122 0.999773
vt 0.000227 0.500226
vt 0.284670 0.500227
vt 0.284670 0.999774
vt 0.000227 0.999774
vt 0.285122 0.000226
vt 0.569565 0.000226
vt 0.569566 0.499773
vt 0.285122 0.499774
vt 0.284670 0.499773
vt 0.000226 0.499774
vt 0.000226 0.000226
vt 0.284670 0.000226
vt 0.570018 0.000226
vt 0.854461 0.000226
vt 0.854461 0.499773
vt 0.570018 0.499774
vn 0.000000 0.000000 1.000000
vn 0.000000 0.499985 0.866024
vn 0.000000 0.866024 0.499985
vn 0.000000 1.000000 0.000000
vn 0.000000 0.866024 -0.499985
vn 0.000000 0.499985 -0.866024
vn 0.000000 0.000000 -1.000000
vn 0.000000 -0.499985 -0.866024
vn 0.000000 -0.866024 -0.499985
vn 0.000000 -0.999969 0.000000
vn 0.000000 -0.866024 0.499985
vn 0.000000 -0.499985 0.866024
vn 0.000000 -1.000000 0.000000
usemtl Material.001
s 1
f 25/1/1 2/2/1 4/3/2
f 25/1/1 4/3/2 38/4/2
f 38/4/2 4/3/2 6/5/3
f 38/4/2 6/5/3 39/6/3
f 39/6/3 6/5/3 8/7/4
f 39/6/3 8/7/4 40/8/4
f 40/9/4 8/10/4 10/11/5
f 40/9/4 10/11/5 41/12/5
f 41/12/5 10/11/5 12/13/6
f 41/12/5 12/13/6 42/14/6
f 42/14/6 12/13/6 14/15/7
f 42/14/6 14/15/7 43/16/7
f 43/16/7 14/15/7 16/17/8
f 43/16/7 16/17/8 44/18/8
f 44/18/8 16/17/8 18/19/9
f 44/18/8 18/19/9 45/20/9
f 45/20/9 18/19/9 20/21/10
f 45/20/9 20/21/10 46/22/10
f 46/22/10 20/21/10 22/23/11
f 46/22/10 22/23/11 47/24/11
f 48/25/12 24/26/12 2/2/1
f 48/25/12 2/2/1 25/1/1
f 47/24/11 22/23/11 24/26/12
f 47/24/11 24/26/12 48/25/12
f 1/27/1 37/28/1 26/29/2
f 1/27/1 26/29/2 3/30/2
f 3/30/2 26/29/2 27/31/3
f 3/30/2 27/31/3 5/32/3
f 5/32/3 27/31/3 28/33/4
f 5/32/3 28/33/4 7/34/4
f 7/35/4 28/36/4 29/37/5
f 7/35/4 29/37/5 9/38/5
f 9/38/5 29/37/5 30/39/6
f 9/38/5 30/39/6 11/40/6
f 11/40/6 30/39/6 31/41/7
f 11/40/6 31/41/7 13/42/7
f 13/42/7 31/41/7 32/43/8
f 13/42/7 32/43/8 15/44/8
f 15/44/8 32/43/8 33/45/9
f 15/44/8 33/45/9 17/46/9
f 17/46/9 33/45/9 34/47/10
f 17/46/9 34/47/10 19/48/13
f 19/48/13 34/47/10 35/49/11
f 19/48/13 35/49/11 21/50/11
f 37/28/1 1/27/1 23/51/12
f 37/28/1 23/51/12 36/52/12
f 21/50/11 35/49/11 36/52/12
f 21/50/11 36/52/12 23/51/12
f 32/43/8 31/41/7 43/16/7
f 32/43/8 43/16/7 44/18/8
f 30/39/6 29/37/5 41/12/5
f 30/39/6 41/12/5 42/14/6
f 28/33/4 27/31/3 39/6/3
f 28/33/4 39/6/3 40/8/4
f 36/52/12 35/49/11 47/24/11
f 36/52/12 47/24/11 48/25/12
f 26/29/2 37/28/1 25/1/1
f 26/29/2 25/1/1 38/4/2
f 34/47/10 33/45/9 45/20/9
f 34/47/10 45/20/9 46/22/10
usemtl Material
f 33/53/9 32/54/8 44/55/8
f 33/53/9 44/55/8 45/56/9
f 31/57/7 30/58/6 42/59/6
f 31/57/7 42/59/6 43/60/7
f 29/61/5 28/62/4 40/63/4
f 29/61/5 40/63/4 41/64/5
f 27/65/3 26/66/2 38/67/2
f 27/65/3 38/67/2 39/68/3
f 48/69/12 25/70/1 37/71/1
f 48/69/12 37/71/1 36/72/12
f 35/73/11 34/74/10 46/75/10
f 35/73/11 46/75/10 47/76/11
